<svg width="223" height="180" viewBox="0 0 223 180" fill="none" xmlns="http://www.w3.org/2000/svg">
<g clip-path="url(#clip0)">
<path d="M38.7226 122.274H38.0139C37.9199 122.274 37.8299 122.237 37.7634 122.17C37.697 122.104 37.6596 122.014 37.6595 121.92V121.211C37.6596 121.117 37.697 121.027 37.7634 120.96C37.8299 120.894 37.9199 120.857 38.0139 120.857H38.7226C38.8165 120.857 38.9066 120.894 38.9731 120.96C39.0395 121.027 39.0768 121.117 39.0769 121.211V121.92C39.0768 122.014 39.0395 122.104 38.9731 122.17C38.9066 122.237 38.8165 122.274 38.7226 122.274Z" fill="#CCCCCC"/>
<path d="M38.3816 121.493C38.3681 121.493 38.3546 121.492 38.3413 121.49C38.3107 121.484 38.2815 121.473 38.2553 121.457C38.229 121.44 38.2063 121.418 38.1884 121.393C38.1705 121.368 38.1577 121.339 38.1509 121.309C38.1441 121.279 38.1432 121.247 38.1485 121.217L40.4848 107.622C40.4958 107.561 40.5306 107.506 40.5817 107.47C40.6327 107.435 40.6959 107.42 40.7574 107.431C40.8189 107.442 40.8737 107.476 40.9098 107.527C40.946 107.578 40.9606 107.641 40.9504 107.702L38.6142 121.297C38.6047 121.352 38.5762 121.401 38.5337 121.437C38.4911 121.473 38.4373 121.493 38.3816 121.493Z" fill="#CCCCCC"/>
<path d="M38.381 121.493C38.3253 121.493 38.2715 121.473 38.229 121.437C38.1864 121.401 38.1579 121.352 38.1485 121.297L35.8122 107.702C35.8021 107.641 35.8167 107.578 35.8528 107.527C35.889 107.476 35.9438 107.442 36.0053 107.431C36.0668 107.42 36.13 107.435 36.181 107.47C36.2321 107.506 36.2669 107.561 36.2779 107.622L38.6141 121.217C38.6194 121.247 38.6186 121.279 38.6117 121.309C38.6049 121.339 38.5921 121.368 38.5742 121.393C38.5563 121.418 38.5336 121.44 38.5074 121.457C38.4811 121.473 38.4519 121.484 38.4213 121.49C38.408 121.492 38.3945 121.493 38.381 121.493Z" fill="#CCCCCC"/>
<path d="M43.4108 105.295C43.6385 103.682 42.777 102.227 41.4863 102.044C40.1956 101.862 38.9647 103.022 38.737 104.636C38.5449 105.996 39.1293 107.241 40.0908 107.708L40.0361 108.096L41.2045 108.261L41.2593 107.873C42.3126 107.691 43.2188 106.656 43.4108 105.295Z" fill="#FF6584"/>
<path d="M37.9852 104.561C37.7057 102.956 36.4381 101.836 35.1539 102.06C33.8697 102.283 33.0555 103.766 33.3351 105.371C33.5709 106.725 34.5099 107.73 35.5685 107.878L35.6357 108.264L36.7983 108.062L36.731 107.676C37.6771 107.178 38.221 105.915 37.9852 104.561Z" fill="#CCCCCC"/>
<path d="M38.3683 121.211C38.3057 121.211 38.2456 121.186 38.2013 121.142C38.157 121.097 38.1321 121.037 38.1321 120.975V107C38.1318 106.968 38.1377 106.937 38.1495 106.909C38.1612 106.88 38.1786 106.853 38.2005 106.831C38.2225 106.809 38.2486 106.791 38.2774 106.779C38.3062 106.767 38.3371 106.761 38.3683 106.761C38.3995 106.761 38.4304 106.767 38.4592 106.779C38.488 106.791 38.5141 106.809 38.5361 106.831C38.5581 106.853 38.5754 106.88 38.5872 106.909C38.5989 106.937 38.6048 106.968 38.6045 107V120.975C38.6045 121.037 38.5797 121.097 38.5354 121.142C38.4911 121.186 38.431 121.211 38.3683 121.211Z" fill="#CCCCCC"/>
<path d="M40.582 104.315C40.582 102.686 39.5254 101.365 38.2219 101.365C36.9184 101.365 35.8618 102.686 35.8618 104.315C35.8618 105.689 36.6145 106.841 37.6319 107.169V107.56H38.8119V107.169C39.8293 106.841 40.582 105.689 40.582 104.315Z" fill="#F78065"/>
<path d="M148.376 180L148.329 179.995L74.4435 173.132L7.25701 179.373C6.33684 179.459 5.40897 179.351 4.53269 179.058C3.65642 178.764 2.85103 178.291 2.16802 177.669C1.485 177.046 0.939391 176.288 0.566059 175.443C0.192726 174.597 -0.00011279 173.683 -0.000127671 172.759V12.9697C-0.00690984 11.3124 0.608859 9.71292 1.72526 8.48802C2.84167 7.26311 4.37732 6.50206 6.02816 6.35554L74.4435 0L74.4908 0.00448857L148.376 6.86802L215.562 0.626745C216.482 0.541265 217.41 0.648724 218.287 0.94225C219.163 1.23578 219.968 1.70891 220.651 2.33141C221.334 2.95391 221.88 3.71207 222.253 4.55744C222.627 5.4028 222.819 6.31676 222.819 7.24089V167.03C222.826 168.688 222.211 170.287 221.094 171.512C219.978 172.737 218.442 173.498 216.791 173.644L148.376 180ZM74.4435 172.106L74.4908 172.11L148.376 178.974L216.697 172.627C218.094 172.503 219.393 171.859 220.338 170.822C221.282 169.786 221.803 168.433 221.798 167.03V7.24089C221.798 6.45893 221.634 5.68557 221.318 4.97026C221.003 4.25494 220.541 3.61341 219.963 3.08667C219.385 2.55993 218.704 2.15958 217.962 1.9112C217.221 1.66282 216.435 1.57189 215.657 1.64421L148.376 7.89446L148.329 7.88997L74.4435 1.02645L6.12268 7.37302L6.07541 6.86429L6.12268 7.37302C4.72582 7.49704 3.42643 8.14103 2.48179 9.1775C1.53714 10.214 1.0161 11.5673 1.02182 12.9697V172.759C1.02183 173.541 1.185 174.314 1.50089 175.03C1.81679 175.745 2.27845 176.387 2.85639 176.913C3.43432 177.44 4.1158 177.84 4.85727 178.089C5.59873 178.337 6.38386 178.428 7.16247 178.356L74.4435 172.106Z" fill="#E6E6E6"/>
<path d="M212.888 40.8956C212.888 36.3518 209.202 25.5695 204.655 25.5695C200.108 25.5695 196.422 36.3518 196.422 40.8956C196.423 43.0782 197.291 45.171 198.835 46.7139C200.379 48.2568 202.472 49.1235 204.655 49.1235C206.838 49.1235 208.931 48.2568 210.475 46.7139C212.018 45.171 212.886 43.0782 212.888 40.8956Z" fill="#3F3D56"/>
<path d="M204.655 59.1265C204.63 59.1265 204.606 59.1166 204.588 59.099C204.571 59.0813 204.561 59.0573 204.561 59.0324V39.8133C204.561 39.7885 204.571 39.7647 204.588 39.7471C204.606 39.7296 204.63 39.7197 204.655 39.7197C204.68 39.7197 204.704 39.7296 204.721 39.7471C204.739 39.7647 204.749 39.7885 204.749 39.8133V59.0324C204.749 59.0447 204.747 59.057 204.742 59.0684C204.737 59.0798 204.73 59.0902 204.721 59.0989C204.713 59.1077 204.702 59.1146 204.691 59.1194C204.679 59.1241 204.667 59.1265 204.655 59.1265Z" fill="#CCCCCC"/>
<path d="M204.655 43.4041C204.641 43.4041 204.628 43.4012 204.616 43.3956C204.604 43.39 204.593 43.3818 204.584 43.3716L199.849 37.9111C199.833 37.8923 199.824 37.8677 199.826 37.8428C199.828 37.818 199.84 37.7949 199.858 37.7785C199.877 37.7622 199.902 37.754 199.927 37.7557C199.952 37.7575 199.975 37.769 199.991 37.7878L204.726 43.2482C204.738 43.2619 204.746 43.2786 204.748 43.2965C204.751 43.3143 204.748 43.3326 204.741 43.349C204.733 43.3654 204.721 43.3793 204.706 43.3891C204.691 43.3989 204.673 43.4041 204.655 43.4041V43.4041Z" fill="#CCCCCC"/>
<path d="M204.655 46.5554C204.636 46.5554 204.618 46.5499 204.603 46.5396C204.587 46.5292 204.575 46.5145 204.568 46.4973C204.561 46.4801 204.559 46.4612 204.563 46.4429C204.566 46.4247 204.575 46.4079 204.588 46.3947L207.279 43.7042C207.288 43.6955 207.298 43.6885 207.309 43.6838C207.321 43.6791 207.333 43.6766 207.345 43.6766C207.358 43.6766 207.37 43.6791 207.381 43.6838C207.393 43.6885 207.403 43.6955 207.412 43.7042C207.421 43.7129 207.428 43.7233 207.432 43.7347C207.437 43.7462 207.44 43.7584 207.44 43.7708C207.44 43.7831 207.437 43.7954 207.432 43.8068C207.428 43.8182 207.421 43.8286 207.412 43.8373L204.721 46.5278C204.713 46.5366 204.702 46.5436 204.691 46.5483C204.68 46.553 204.667 46.5554 204.655 46.5554Z" fill="#CCCCCC"/>
<path d="M195.738 59.0017C195.738 58.0902 196.1 57.2159 196.745 56.5714C197.389 55.9268 198.263 55.5647 199.175 55.5647C200.086 55.5647 200.961 55.9268 201.605 56.5714C202.25 57.2159 202.612 58.0902 202.612 59.0017" fill="#F2F2F2"/>
<path d="M199.175 59.0017C199.15 59.0017 199.127 58.9919 199.109 58.9745C199.092 58.9571 199.082 58.9335 199.082 58.9088V57.0974C199.082 57.0728 199.092 57.0491 199.109 57.0317C199.127 57.0143 199.15 57.0045 199.175 57.0045C199.2 57.0045 199.223 57.0143 199.241 57.0317C199.258 57.0491 199.268 57.0728 199.268 57.0974V58.9088C199.268 58.9335 199.258 58.9571 199.241 58.9745C199.223 58.9919 199.2 59.0017 199.175 59.0017Z" fill="#CCCCCC"/>
<path d="M199.175 58.3793C199.153 58.3794 199.131 58.3714 199.114 58.3569L198 57.4002C197.99 57.3922 197.983 57.3825 197.977 57.3717C197.972 57.3608 197.968 57.3489 197.968 57.3368C197.967 57.3246 197.968 57.3124 197.972 57.3008C197.976 57.2892 197.982 57.2785 197.99 57.2692C197.998 57.2599 198.007 57.2523 198.018 57.2468C198.029 57.2413 198.041 57.238 198.053 57.2371C198.065 57.2362 198.078 57.2376 198.089 57.2414C198.101 57.2452 198.111 57.2513 198.121 57.2592L199.235 58.2159C199.25 58.2283 199.26 58.2448 199.265 58.2632C199.27 58.2815 199.269 58.3009 199.262 58.3187C199.255 58.3365 199.244 58.3519 199.228 58.3627C199.212 58.3735 199.194 58.3793 199.175 58.3793H199.175Z" fill="#CCCCCC"/>
<path d="M206.328 59.0017C206.328 58.0902 206.69 57.2159 207.334 56.5714C207.979 55.9268 208.853 55.5647 209.765 55.5647C210.676 55.5647 211.55 55.9268 212.195 56.5714C212.84 57.2159 213.202 58.0902 213.202 59.0017" fill="#F2F2F2"/>
<path d="M209.765 59.0017C209.74 59.0017 209.716 58.9919 209.699 58.9745C209.682 58.9571 209.672 58.9335 209.672 58.9088V57.0974C209.672 57.0728 209.682 57.0491 209.699 57.0317C209.716 57.0143 209.74 57.0045 209.765 57.0045C209.789 57.0045 209.813 57.0143 209.83 57.0317C209.848 57.0491 209.858 57.0728 209.858 57.0974V58.9088C209.858 58.9335 209.848 58.9571 209.83 58.9745C209.813 58.9919 209.789 59.0017 209.765 59.0017Z" fill="#CCCCCC"/>
<path d="M209.765 58.3793C209.742 58.3793 209.721 58.3713 209.704 58.3568L208.589 57.4001C208.571 57.384 208.559 57.3613 208.558 57.3368C208.556 57.3123 208.564 57.2881 208.58 57.2694C208.596 57.2508 208.619 57.2393 208.643 57.2373C208.667 57.2354 208.692 57.2433 208.71 57.2591L209.825 58.2159C209.84 58.2282 209.85 58.2447 209.855 58.2631C209.859 58.2814 209.858 58.3008 209.852 58.3186C209.845 58.3364 209.833 58.3518 209.818 58.3626C209.802 58.3734 209.784 58.3793 209.765 58.3792V58.3793Z" fill="#CCCCCC"/>
<path d="M104.599 27.8815C106.857 24.6493 109.593 15.1477 106.358 12.8881C103.124 10.6286 95.1439 16.4667 92.8859 19.6989C91.8016 21.2521 91.3785 23.1724 91.7098 25.0374C92.041 26.9025 93.0995 28.5597 94.6523 29.6445C96.2052 30.7293 98.1253 31.153 99.9905 30.8224C101.856 30.4918 103.513 29.4339 104.599 27.8815Z" fill="#F2F2F2"/>
<path d="M89.6824 36.7584C89.6646 36.746 89.6525 36.7271 89.6487 36.7057C89.6449 36.6844 89.6498 36.6624 89.6622 36.6447L99.213 22.9735C99.2254 22.9557 99.2443 22.9436 99.2657 22.9399C99.287 22.9361 99.309 22.9409 99.3267 22.9533C99.3445 22.9657 99.3566 22.9847 99.3604 23.006C99.3642 23.0274 99.3593 23.0493 99.3469 23.0671L89.7961 36.7383C89.7837 36.756 89.7648 36.7681 89.7434 36.7719C89.7221 36.7757 89.7001 36.7709 89.6824 36.7584Z" fill="#CCCCCC"/>
<path d="M97.4956 25.5745C97.486 25.5678 97.4779 25.5591 97.472 25.5491C97.466 25.539 97.4623 25.5277 97.4611 25.5161L96.8065 19.2788C96.8043 19.2573 96.8107 19.2357 96.8243 19.2189C96.8379 19.202 96.8577 19.1913 96.8793 19.189C96.9008 19.1868 96.9224 19.1932 96.9392 19.2068C96.9561 19.2205 96.9668 19.2402 96.9691 19.2618L97.6237 25.499C97.6253 25.5146 97.6224 25.5303 97.6154 25.5443C97.6083 25.5583 97.5974 25.5699 97.5839 25.5779C97.5704 25.5858 97.5549 25.5897 97.5393 25.5892C97.5236 25.5886 97.5085 25.5835 97.4956 25.5745L97.4956 25.5745Z" fill="#CCCCCC"/>
<path d="M95.9295 27.8162C95.9163 27.8069 95.9061 27.7939 95.9002 27.7789C95.8944 27.7638 95.8931 27.7474 95.8966 27.7316C95.9001 27.7158 95.9081 27.7014 95.9198 27.6902C95.9314 27.6791 95.9461 27.6716 95.9621 27.6688L99.2129 27.0919C99.2235 27.09 99.2344 27.0901 99.2449 27.0924C99.2554 27.0947 99.2654 27.099 99.2742 27.1052C99.2831 27.1113 99.2906 27.1191 99.2964 27.1282C99.3022 27.1373 99.3062 27.1474 99.3081 27.158C99.31 27.1686 99.3097 27.1795 99.3074 27.19C99.3051 27.2005 99.3007 27.2104 99.2945 27.2192C99.2883 27.228 99.2804 27.2355 99.2713 27.2413C99.2622 27.247 99.2521 27.2509 99.2415 27.2528L95.9906 27.8296C95.98 27.8315 95.9692 27.8313 95.9587 27.829C95.9482 27.8267 95.9383 27.8223 95.9295 27.8162Z" fill="#CCCCCC"/>
<path d="M83.4014 32.2384C83.8552 31.592 84.5468 31.152 85.3247 31.0149C86.1025 30.8778 86.9029 31.0548 87.5504 31.5071C88.1978 31.9595 88.6394 32.6501 88.7783 33.4276C88.9172 34.2051 88.742 35.006 88.2911 35.6544" fill="#F2F2F2"/>
<path d="M85.8462 33.9464C85.8287 33.9341 85.8167 33.9154 85.813 33.8944C85.8093 33.8733 85.8141 33.8517 85.8263 33.8341L86.7265 32.5456C86.7388 32.5283 86.7575 32.5165 86.7784 32.5128C86.7994 32.5091 86.821 32.5139 86.8384 32.5261C86.8559 32.5383 86.8678 32.5569 86.8716 32.5779C86.8754 32.5988 86.8707 32.6204 86.8586 32.638L85.9585 33.9265C85.9462 33.944 85.9275 33.9559 85.9065 33.9597C85.8854 33.9634 85.8637 33.9586 85.8462 33.9464Z" fill="#CCCCCC"/>
<path d="M86.1555 33.5037C86.1397 33.4927 86.1284 33.4764 86.1237 33.4577L85.8062 32.2232C85.8035 32.2129 85.8029 32.2022 85.8044 32.1917C85.8058 32.1812 85.8093 32.1711 85.8147 32.1619C85.8201 32.1528 85.8272 32.1448 85.8357 32.1384C85.8442 32.132 85.8538 32.1274 85.8641 32.1247C85.8744 32.1221 85.8851 32.1215 85.8956 32.123C85.9061 32.1245 85.9162 32.1281 85.9253 32.1335C85.9345 32.1389 85.9424 32.1461 85.9488 32.1546C85.9551 32.1631 85.9597 32.1728 85.9623 32.183L86.2798 33.4176C86.2839 33.4335 86.283 33.4503 86.2773 33.4658C86.2715 33.4812 86.2612 33.4945 86.2477 33.5039C86.2341 33.5133 86.218 33.5183 86.2016 33.5182C86.1851 33.5182 86.169 33.5131 86.1555 33.5037Z" fill="#CCCCCC"/>
<path d="M90.9343 37.5009C91.1582 37.1789 91.4434 36.9042 91.7736 36.6925C92.1038 36.4808 92.4725 36.3364 92.8587 36.2674C93.2448 36.1984 93.6407 36.2063 94.0238 36.2906C94.4069 36.3749 94.7695 36.5338 95.0911 36.7585C95.4126 36.9831 95.6867 37.269 95.8976 37.5996C96.1085 37.9303 96.2521 38.2994 96.3202 38.6857C96.3883 39.072 96.3795 39.4679 96.2944 39.8507C96.2092 40.2336 96.0494 40.5959 95.824 40.917" fill="#F2F2F2"/>
<path d="M93.3792 39.209C93.3616 39.1967 93.3497 39.178 93.346 39.157C93.3422 39.1359 93.347 39.1143 93.3592 39.0968L94.2594 37.8082C94.2717 37.7907 94.2904 37.7788 94.3114 37.775C94.3325 37.7713 94.3541 37.7761 94.3717 37.7883C94.3892 37.8006 94.4011 37.8193 94.4049 37.8403C94.4086 37.8614 94.4038 37.883 94.3916 37.9006L93.4914 39.1891C93.4792 39.2066 93.4605 39.2186 93.4394 39.2223C93.4184 39.226 93.3967 39.2212 93.3792 39.209Z" fill="#CCCCCC"/>
<path d="M93.6885 38.7662C93.6727 38.7552 93.6614 38.7389 93.6566 38.7203L93.3391 37.4857C93.3339 37.4651 93.3371 37.4432 93.348 37.4249C93.3589 37.4066 93.3766 37.3933 93.3972 37.388C93.4178 37.3827 93.4397 37.3858 93.4581 37.3966C93.4765 37.4074 93.4898 37.425 93.4952 37.4456L93.8127 38.6801C93.8168 38.6961 93.816 38.7129 93.8102 38.7283C93.8045 38.7438 93.7941 38.7571 93.7806 38.7664C93.767 38.7758 93.751 38.7808 93.7345 38.7808C93.718 38.7808 93.702 38.7757 93.6885 38.7662Z" fill="#CCCCCC"/>
<path d="M150.926 98.3854C152.743 100.054 154.548 101.734 156.34 103.426C155.88 103.452 155.403 103.472 154.912 103.487C154.22 103.51 153.499 103.521 152.743 103.521C144.447 103.521 140.237 102.159 136.169 100.841C132.306 99.5913 128.658 98.4109 121.167 98.4109C113.674 98.4109 110.025 99.5913 106.165 100.841C102.095 102.159 97.8843 103.521 89.5887 103.521C81.2904 103.521 77.0824 102.159 73.0126 100.841C69.239 99.6194 65.6698 98.4646 58.5212 98.4135C58.3525 98.4109 58.184 98.4109 58.0102 98.4109V93.3011C58.1814 93.3011 58.3525 93.3011 58.5212 93.3037C66.4823 93.3573 70.6008 94.691 74.5863 95.9787C78.4493 97.2306 82.0978 98.4109 89.5887 98.4109C97.0796 98.4109 100.728 97.2306 104.591 95.9787C108.661 94.6629 112.869 93.3011 121.167 93.3011C129.463 93.3011 133.671 94.6629 137.741 95.9787C140.968 97.0236 144.046 98.02 149.34 98.319C149.848 98.3496 150.375 98.3701 150.926 98.3854Z" fill="#F78065"/>
<path d="M215.902 98.4109V103.521C207.604 103.521 203.396 102.159 199.326 100.841C195.463 99.5913 191.815 98.4109 184.324 98.4109C176.83 98.4109 173.182 99.5913 169.319 100.841C169.11 100.91 168.898 100.976 168.685 101.045C168.323 101.163 167.955 101.28 167.582 101.395C166.172 100.013 164.756 98.6426 163.336 97.2842C163.732 97.1871 164.115 97.0849 164.493 96.9802C165.62 96.6685 166.675 96.3261 167.748 95.9787C171.818 94.6629 176.026 93.3011 184.324 93.3011C192.622 93.3011 196.83 94.6629 200.9 95.9787C204.763 97.2306 208.412 98.4109 215.902 98.4109Z" fill="#F78065"/>
<path d="M102.994 59.1142C88.6918 48.6979 73.6435 38.8207 58.2708 29.7585L57.4992 29.3038V60.0391H104.264L102.994 59.1142ZM58.5211 59.0171V31.0947C73.1454 39.7456 87.4655 49.1323 101.121 59.0171H58.5211ZM175.377 122.279C169.191 115.848 162.846 109.564 156.34 103.426C154.547 101.732 152.742 100.052 150.926 98.3854C139.846 88.2068 128.401 78.5263 116.591 69.344L116.453 69.2367H57.4992V123.145H176.21L175.377 122.279ZM58.5211 122.123V70.2587H116.103C127.49 79.1165 138.569 88.4699 149.34 98.319C151.21 100.028 153.067 101.751 154.912 103.488C161.361 109.548 167.658 115.76 173.805 122.123H58.5211ZM175.377 122.279C169.191 115.848 162.846 109.564 156.34 103.426C154.547 101.732 152.742 100.052 150.926 98.3854C139.846 88.2068 128.401 78.5263 116.591 69.344L116.453 69.2367H57.4992V123.145H176.21L175.377 122.279ZM58.5211 122.123V70.2587H116.103C127.49 79.1165 138.569 88.4699 149.34 98.319C151.21 100.028 153.067 101.751 154.912 103.488C161.361 109.548 167.658 115.76 173.805 122.123H58.5211ZM102.994 59.1142C88.6918 48.6979 73.6435 38.8207 58.2708 29.7585L57.4992 29.3038V60.0391H104.264L102.994 59.1142ZM58.5211 59.0171V31.0947C73.1454 39.7456 87.4655 49.1323 101.121 59.0171H58.5211ZM102.994 59.1142C88.6918 48.6979 73.6435 38.8207 58.2708 29.7585L57.4992 29.3038V60.0391H104.264L102.994 59.1142ZM58.5211 59.0171V31.0947C73.1454 39.7456 87.4655 49.1323 101.121 59.0171H58.5211ZM175.377 122.279C169.191 115.848 162.846 109.564 156.34 103.426C154.547 101.732 152.742 100.052 150.926 98.3854C139.846 88.2068 128.401 78.5263 116.591 69.344L116.453 69.2367H57.4992V123.145H176.21L175.377 122.279ZM58.5211 122.123V70.2587H116.103C127.49 79.1165 138.569 88.4699 149.34 98.319C151.21 100.028 153.067 101.751 154.912 103.488C161.361 109.548 167.658 115.76 173.805 122.123H58.5211ZM6.91748 132.342V133.364H47.2796V148.183H6.91748V149.205H48.3016V132.342H6.91748ZM57.4992 158.402V168.757L58.5211 168.663V159.424H215.902V158.402H57.4992ZM215.902 133.364V132.342H57.4992V149.205H215.902V148.183H58.5211V133.364H215.902ZM120.465 59.0171C100.859 43.8933 80.1536 30.2508 58.5211 18.2028V7.85547L57.4992 7.95V18.3774L58.2861 19.2426C79.8305 31.2578 100.452 44.8584 119.979 59.9318L120.117 60.0391H215.902V59.0171H120.465ZM47.2796 59.0171H6.91748V60.0391H48.3016V8.80333L47.2796 8.89786V59.0171ZM215.902 69.2367H131.696L132.797 70.1411C143.165 78.6719 153.344 87.7196 163.336 97.2843C164.756 98.6435 166.171 100.014 167.582 101.395C174.603 108.255 181.486 115.339 188.233 122.647L189.075 123.145H215.902V122.123H189.14C182.467 114.887 175.648 107.862 168.685 101.045C167.293 99.6808 165.896 98.3258 164.493 96.9803C154.718 87.6012 144.734 78.6941 134.542 70.2587H215.902V69.2367ZM6.91748 158.402V159.424H47.2796V169.705L48.3016 169.611V158.402H6.91748ZM6.91748 69.2367V70.2587H47.2796V122.123H6.91748V123.145H48.3016V69.2367H6.91748ZM102.994 59.1142C88.6918 48.6979 73.6435 38.8207 58.2708 29.7585L57.4992 29.3038V60.0391H104.264L102.994 59.1142ZM58.5211 59.0171V31.0947C73.1454 39.7456 87.4655 49.1323 101.121 59.0171H58.5211ZM175.377 122.279C169.191 115.848 162.846 109.564 156.34 103.426C154.547 101.732 152.742 100.052 150.926 98.3854C139.846 88.2068 128.401 78.5263 116.591 69.344L116.453 69.2367H57.4992V123.145H176.21L175.377 122.279ZM58.5211 122.123V70.2587H116.103C127.49 79.1165 138.569 88.4699 149.34 98.319C151.21 100.028 153.067 101.751 154.912 103.488C161.361 109.548 167.658 115.76 173.805 122.123H58.5211ZM102.994 59.1142C88.6918 48.6979 73.6435 38.8207 58.2708 29.7585L57.4992 29.3038V60.0391H104.264L102.994 59.1142ZM58.5211 59.0171V31.0947C73.1454 39.7456 87.4655 49.1323 101.121 59.0171H58.5211ZM175.377 122.279C169.191 115.848 162.846 109.564 156.34 103.426C154.547 101.732 152.742 100.052 150.926 98.3854C139.846 88.2068 128.401 78.5263 116.591 69.344L116.453 69.2367H57.4992V123.145H176.21L175.377 122.279ZM58.5211 122.123V70.2587H116.103C127.49 79.1165 138.569 88.4699 149.34 98.319C151.21 100.028 153.067 101.751 154.912 103.488C161.361 109.548 167.658 115.76 173.805 122.123H58.5211Z" fill="#3F3D56"/>
<path d="M129.723 93.8666C129.723 89.367 133.371 78.6897 137.87 78.6897C142.37 78.6897 146.017 89.367 146.017 93.8666C146.017 96.0274 145.159 98.0996 143.631 99.6275C142.103 101.155 140.031 102.014 137.87 102.014C135.709 102.014 133.637 101.155 132.109 99.6275C130.581 98.0996 129.723 96.0274 129.723 93.8666Z" fill="#F2F2F2"/>
<path d="M137.87 113.688C137.861 113.688 137.853 113.686 137.845 113.683C137.836 113.679 137.829 113.674 137.823 113.668C137.817 113.662 137.812 113.655 137.808 113.647C137.805 113.638 137.803 113.63 137.803 113.621V85.532C137.803 85.5142 137.81 85.4972 137.823 85.4846C137.835 85.472 137.852 85.465 137.87 85.465C137.888 85.465 137.905 85.472 137.918 85.4846C137.93 85.4972 137.937 85.5142 137.937 85.532V113.621C137.937 113.63 137.935 113.638 137.932 113.647C137.929 113.655 137.924 113.662 137.918 113.668C137.911 113.674 137.904 113.679 137.896 113.683C137.888 113.686 137.879 113.688 137.87 113.688Z" fill="#3F3D56"/>
<path d="M137.87 90.9547C137.861 90.9547 137.853 90.953 137.845 90.9496C137.836 90.9463 137.829 90.9413 137.823 90.9351L134.598 87.7104C134.592 87.7042 134.587 87.6968 134.584 87.6887C134.58 87.6806 134.578 87.6719 134.578 87.6631C134.578 87.6543 134.58 87.6455 134.584 87.6374C134.587 87.6293 134.592 87.6219 134.598 87.6157C134.604 87.6095 134.612 87.6045 134.62 87.6012C134.628 87.5978 134.637 87.5961 134.645 87.5961C134.654 87.5961 134.663 87.5978 134.671 87.6012C134.679 87.6045 134.687 87.6095 134.693 87.6157L137.918 90.8403C137.927 90.8497 137.933 90.8617 137.936 90.8746C137.938 90.8876 137.937 90.9011 137.932 90.9133C137.927 90.9256 137.918 90.9361 137.907 90.9434C137.896 90.9508 137.883 90.9547 137.87 90.9547Z" fill="#3F3D56"/>
<path d="M137.87 96.5372C137.857 96.5372 137.844 96.5333 137.833 96.5259C137.822 96.5186 137.813 96.5081 137.808 96.4959C137.803 96.4836 137.802 96.4701 137.804 96.4571C137.807 96.4442 137.813 96.4322 137.823 96.4228L143.223 91.0226C143.229 91.0163 143.237 91.0114 143.245 91.008C143.253 91.0047 143.262 91.0029 143.27 91.0029C143.279 91.0029 143.288 91.0047 143.296 91.008C143.304 91.0114 143.312 91.0163 143.318 91.0225C143.324 91.0288 143.329 91.0362 143.332 91.0443C143.336 91.0524 143.337 91.0611 143.337 91.0699C143.337 91.0787 143.336 91.0874 143.332 91.0955C143.329 91.1037 143.324 91.1111 143.318 91.1173L137.918 96.5176C137.911 96.5238 137.904 96.5288 137.896 96.5321C137.888 96.5355 137.879 96.5372 137.87 96.5372Z" fill="#3F3D56"/>
<path d="M175.405 70.8726C175.405 66.373 179.052 55.6957 183.552 55.6957C188.051 55.6957 191.699 66.373 191.699 70.8726C191.698 73.0325 190.839 75.1035 189.311 76.6303C187.783 78.1571 185.712 79.0148 183.552 79.0148C181.392 79.0148 179.32 78.1571 177.793 76.6303C176.265 75.1035 175.406 73.0325 175.405 70.8726Z" fill="#F78065"/>
<path d="M183.552 90.6938C183.543 90.6938 183.534 90.6921 183.526 90.6887C183.518 90.6854 183.511 90.6804 183.504 90.6742C183.498 90.668 183.493 90.6606 183.49 90.6525C183.487 90.6444 183.485 90.6356 183.485 90.6268V62.5379C183.485 62.5202 183.492 62.5031 183.504 62.4906C183.517 62.478 183.534 62.4709 183.552 62.4709C183.57 62.4709 183.587 62.478 183.599 62.4906C183.612 62.5031 183.619 62.5202 183.619 62.5379V90.6268C183.619 90.6356 183.617 90.6444 183.614 90.6525C183.61 90.6606 183.605 90.668 183.599 90.6742C183.593 90.6804 183.586 90.6854 183.577 90.6887C183.569 90.6921 183.561 90.6938 183.552 90.6938Z" fill="#3F3D56"/>
<path d="M183.552 67.9607C183.543 67.9607 183.534 67.959 183.526 67.9556C183.518 67.9522 183.511 67.9473 183.505 67.9411L180.28 64.7164C180.267 64.7038 180.26 64.6868 180.26 64.669C180.26 64.6513 180.267 64.6342 180.28 64.6217C180.292 64.6091 180.309 64.602 180.327 64.6021C180.345 64.6021 180.362 64.6091 180.375 64.6217L183.599 67.8463C183.609 67.8557 183.615 67.8676 183.618 67.8806C183.62 67.8936 183.619 67.9071 183.614 67.9193C183.609 67.9316 183.6 67.942 183.589 67.9494C183.578 67.9568 183.565 67.9607 183.552 67.9607H183.552Z" fill="#3F3D56"/>
<path d="M183.552 73.5431C183.539 73.5431 183.526 73.5392 183.515 73.5319C183.504 73.5245 183.495 73.514 183.49 73.5018C183.485 73.4896 183.484 73.4761 183.486 73.4631C183.489 73.4501 183.495 73.4382 183.504 73.4288L188.905 68.0285C188.917 68.016 188.934 68.0091 188.952 68.0092C188.97 68.0092 188.987 68.0163 188.999 68.0288C189.012 68.0413 189.019 68.0582 189.019 68.0759C189.019 68.0936 189.012 68.1106 189 68.1232L183.599 73.5235C183.593 73.5298 183.586 73.5347 183.577 73.5381C183.569 73.5414 183.561 73.5432 183.552 73.5431Z" fill="#3F3D56"/>
<path d="M75.3787 73.172C75.3787 68.6724 79.0264 57.9951 83.5259 57.9951C88.0255 57.9951 91.6732 68.6724 91.6732 73.172C91.6732 75.3328 90.8148 77.405 89.2869 78.9329C87.759 80.4608 85.6867 81.3192 83.5259 81.3192C81.3652 81.3192 79.2929 80.4608 77.765 78.9329C76.2371 77.405 75.3787 75.3328 75.3787 73.172Z" fill="#F78065"/>
<path d="M83.526 92.9933C83.5172 92.9933 83.5085 92.9916 83.5003 92.9882C83.4922 92.9848 83.4848 92.9799 83.4786 92.9737C83.4724 92.9674 83.4674 92.9601 83.4641 92.9519C83.4607 92.9438 83.459 92.9351 83.459 92.9263V64.8374C83.459 64.8196 83.466 64.8026 83.4786 64.79C83.4912 64.7774 83.5082 64.7704 83.526 64.7704C83.5437 64.7704 83.5608 64.7774 83.5733 64.79C83.5859 64.8026 83.593 64.8196 83.593 64.8374V92.9263C83.593 92.9351 83.5912 92.9438 83.5879 92.9519C83.5845 92.9601 83.5796 92.9674 83.5733 92.9737C83.5671 92.9799 83.5597 92.9848 83.5516 92.9882C83.5435 92.9916 83.5348 92.9933 83.526 92.9933Z" fill="#3F3D56"/>
<path d="M83.5259 70.2601C83.5171 70.2601 83.5084 70.2584 83.5003 70.255C83.4921 70.2517 83.4848 70.2467 83.4785 70.2405L80.2539 67.0158C80.2476 67.0096 80.2427 67.0022 80.2393 66.9941C80.236 66.986 80.2343 66.9773 80.2343 66.9685C80.2343 66.9597 80.236 66.951 80.2394 66.9428C80.2427 66.9347 80.2477 66.9273 80.2539 66.9211C80.2601 66.9149 80.2675 66.91 80.2756 66.9066C80.2837 66.9032 80.2925 66.9015 80.3013 66.9015C80.31 66.9015 80.3188 66.9032 80.3269 66.9066C80.335 66.91 80.3424 66.9149 80.3486 66.9211L83.5733 70.1457C83.5827 70.1551 83.589 70.1671 83.5916 70.1801C83.5942 70.193 83.5929 70.2065 83.5878 70.2188C83.5827 70.231 83.5741 70.2415 83.5631 70.2488C83.5521 70.2562 83.5392 70.2601 83.5259 70.2601Z" fill="#3F3D56"/>
<path d="M83.526 75.8425C83.5127 75.8425 83.4998 75.8386 83.4888 75.8312C83.4777 75.8239 83.4692 75.8134 83.4641 75.8012C83.459 75.7889 83.4577 75.7755 83.4603 75.7625C83.4629 75.7495 83.4692 75.7376 83.4786 75.7282L88.8789 70.3279C88.8914 70.3154 88.9085 70.3083 88.9262 70.3083C88.944 70.3084 88.961 70.3154 88.9735 70.328C88.9861 70.3405 88.9931 70.3575 88.9931 70.3753C88.9932 70.393 88.9861 70.41 88.9736 70.4226L83.5734 75.8229C83.5671 75.8291 83.5598 75.8341 83.5516 75.8375C83.5435 75.8408 83.5348 75.8425 83.526 75.8425Z" fill="#3F3D56"/>
<path d="M150.546 50.725C145.918 50.725 141.395 49.3528 137.547 46.782C133.7 44.2112 130.701 40.5571 128.93 36.282C127.159 32.0069 126.696 27.3027 127.599 22.7642C128.502 18.2258 130.73 14.0569 134.002 10.7849C137.274 7.51286 141.443 5.28457 145.981 4.38182C150.52 3.47906 155.224 3.94239 159.499 5.7132C163.774 7.48402 167.428 10.4828 169.999 14.3303C172.57 18.1778 173.942 22.7013 173.942 27.3286C173.935 33.5316 171.468 39.4784 167.082 43.8646C162.695 48.2507 156.749 50.718 150.546 50.725ZM150.546 4.24631C145.98 4.24631 141.518 5.60006 137.722 8.13638C133.926 10.6727 130.967 14.2777 129.22 18.4954C127.473 22.7131 127.016 27.3542 127.907 31.8318C128.798 36.3093 130.996 40.4222 134.224 43.6503C137.452 46.8784 141.565 49.0768 146.043 49.9674C150.52 50.8581 155.161 50.4009 159.379 48.6539C163.597 46.9068 167.202 43.9483 169.738 40.1525C172.274 36.3566 173.628 31.8939 173.628 27.3286C173.621 21.2089 171.187 15.3419 166.86 11.0146C162.532 6.68733 156.665 4.25324 150.546 4.24632V4.24631Z" fill="#CCCCCC"/>
<path d="M150.546 25.6014C150.504 25.6014 150.464 25.5848 150.435 25.5554C150.405 25.5259 150.389 25.486 150.389 25.4443V4.08927C150.389 4.04763 150.405 4.00769 150.435 3.97824C150.464 3.94879 150.504 3.93225 150.546 3.93225C150.587 3.93225 150.627 3.94879 150.657 3.97824C150.686 4.00769 150.703 4.04763 150.703 4.08927V25.4443C150.703 25.486 150.686 25.5259 150.657 25.5554C150.627 25.5848 150.587 25.6014 150.546 25.6014Z" fill="#CCCCCC"/>
<path d="M173.785 27.4857H152.43C152.388 27.4857 152.348 27.4691 152.319 27.4397C152.289 27.4102 152.273 27.3703 152.273 27.3287C152.273 27.287 152.289 27.2471 152.319 27.2176C152.348 27.1882 152.388 27.1716 152.43 27.1716H173.785C173.827 27.1716 173.867 27.1882 173.896 27.2176C173.925 27.2471 173.942 27.287 173.942 27.3287C173.942 27.3703 173.925 27.4102 173.896 27.4397C173.867 27.4691 173.827 27.4857 173.785 27.4857Z" fill="#CCCCCC"/>
<path d="M148.661 27.4857H127.316C127.275 27.4857 127.235 27.4691 127.205 27.4397C127.176 27.4102 127.159 27.3703 127.159 27.3287C127.159 27.287 127.176 27.2471 127.205 27.2176C127.235 27.1882 127.275 27.1716 127.316 27.1716H148.661C148.703 27.1716 148.743 27.1882 148.772 27.2176C148.802 27.2471 148.818 27.287 148.818 27.3287C148.818 27.3703 148.802 27.4102 148.772 27.4397C148.743 27.4691 148.703 27.4857 148.661 27.4857Z" fill="#CCCCCC"/>
<path d="M150.546 50.725C150.504 50.725 150.464 50.7085 150.435 50.679C150.405 50.6496 150.389 50.6096 150.389 50.568V29.2129C150.389 29.1713 150.405 29.1313 150.435 29.1019C150.464 29.0725 150.504 29.0559 150.546 29.0559C150.587 29.0559 150.627 29.0725 150.657 29.1019C150.686 29.1313 150.703 29.1713 150.703 29.2129V50.568C150.703 50.6096 150.686 50.6496 150.657 50.679C150.627 50.7085 150.587 50.725 150.546 50.725Z" fill="#CCCCCC"/>
<path d="M151.93 26.2097C151.899 26.2097 151.869 26.2005 151.843 26.1832C151.817 26.166 151.797 26.1414 151.785 26.1128C151.773 26.0841 151.77 26.0525 151.776 26.022C151.782 25.9916 151.797 25.9636 151.819 25.9417L166.853 10.9077C166.882 10.8785 166.922 10.8621 166.964 10.8622C167.005 10.8623 167.045 10.8788 167.075 10.9082C167.104 10.9375 167.121 10.9774 167.121 11.0189C167.121 11.0604 167.104 11.1003 167.075 11.1298L152.041 26.1637C152.027 26.1783 152.009 26.1899 151.99 26.1978C151.971 26.2057 151.951 26.2097 151.93 26.2097Z" fill="#CCCCCC"/>
<path d="M149.161 26.2097C149.141 26.2097 149.12 26.2057 149.101 26.1978C149.082 26.1899 149.065 26.1783 149.05 26.1637L134.016 11.1298C133.987 11.1003 133.971 11.0604 133.971 11.0189C133.971 10.9774 133.987 10.9375 134.017 10.9082C134.046 10.8788 134.086 10.8623 134.127 10.8622C134.169 10.8621 134.209 10.8785 134.238 10.9077L149.272 25.9417C149.294 25.9636 149.309 25.9916 149.315 26.022C149.321 26.0525 149.318 26.0841 149.306 26.1128C149.294 26.1414 149.274 26.166 149.248 26.1832C149.223 26.2005 149.192 26.2097 149.161 26.2097Z" fill="#CCCCCC"/>
<path d="M166.964 43.7955C166.943 43.7955 166.923 43.7915 166.904 43.7836C166.885 43.7757 166.868 43.7641 166.853 43.7495L151.819 28.7156C151.79 28.6861 151.773 28.6462 151.774 28.6047C151.774 28.5632 151.79 28.5234 151.82 28.494C151.849 28.4646 151.889 28.4481 151.93 28.448C151.972 28.4479 152.012 28.4643 152.041 28.4936L167.075 43.5275C167.097 43.5494 167.112 43.5774 167.118 43.6079C167.124 43.6383 167.121 43.6699 167.109 43.6986C167.097 43.7273 167.077 43.7518 167.051 43.769C167.025 43.7863 166.995 43.7955 166.964 43.7955V43.7955Z" fill="#CCCCCC"/>
<path d="M134.127 43.7954C134.096 43.7954 134.066 43.7862 134.04 43.769C134.014 43.7517 133.994 43.7272 133.982 43.6985C133.97 43.6698 133.967 43.6383 133.973 43.6078C133.979 43.5773 133.994 43.5494 134.016 43.5274L149.05 28.4935C149.08 28.4641 149.12 28.4475 149.161 28.4475C149.203 28.4475 149.243 28.4641 149.272 28.4935C149.302 28.5229 149.318 28.5629 149.318 28.6045C149.318 28.6462 149.302 28.6861 149.272 28.7155L134.238 43.7494C134.224 43.7641 134.206 43.7756 134.187 43.7835C134.168 43.7914 134.148 43.7955 134.127 43.7954Z" fill="#CCCCCC"/>
<path d="M150.546 43.4234C147.362 43.4234 144.251 42.4795 141.604 40.7109C138.957 38.9424 136.894 36.4287 135.676 33.4878C134.458 30.5469 134.139 27.3107 134.76 24.1886C135.381 21.0666 136.914 18.1987 139.165 15.9478C141.416 13.6969 144.284 12.1641 147.406 11.543C150.528 10.922 153.764 11.2407 156.705 12.4589C159.646 13.6771 162.16 15.74 163.928 18.3868C165.697 21.0336 166.641 24.1453 166.641 27.3286C166.636 31.5957 164.938 35.6867 161.921 38.704C158.904 41.7213 154.813 43.4186 150.546 43.4234ZM150.546 11.5478C147.425 11.5478 144.374 12.4734 141.778 14.2074C139.183 15.9414 137.161 18.406 135.966 21.2896C134.772 24.1731 134.459 27.3461 135.068 30.4073C135.677 33.4684 137.18 36.2803 139.387 38.4873C141.594 40.6943 144.406 42.1972 147.467 42.8061C150.528 43.4151 153.701 43.1025 156.585 41.9081C159.468 40.7137 161.933 38.6911 163.667 36.0959C165.401 33.5008 166.326 30.4497 166.326 27.3286C166.322 23.1447 164.658 19.1336 161.699 16.1751C158.741 13.2167 154.73 11.5526 150.546 11.5478Z" fill="#CCCCCC"/>
<path d="M150.546 29.2129C151.586 29.2129 152.43 28.3693 152.43 27.3286C152.43 26.288 151.586 25.4443 150.546 25.4443C149.505 25.4443 148.661 26.288 148.661 27.3286C148.661 28.3693 149.505 29.2129 150.546 29.2129Z" fill="#3F3D56"/>
<path d="M143.251 59.1564L141.595 59.2043L149.675 26.5914L151.177 27.0497L143.251 59.1564Z" fill="#3F3D56"/>
<path d="M157.841 59.1564L159.496 59.2043L151.416 26.5914L149.914 27.0497L157.841 59.1564Z" fill="#3F3D56"/>
<path d="M153.058 8.79993H147.876V11.6263H153.058V8.79993Z" fill="#CCCCCC"/>
<path d="M150.232 9.42798H148.19V11.6263H150.232V9.42798Z" fill="white"/>
<path d="M152.744 9.42798H150.703V11.6263H152.744V9.42798Z" fill="white"/>
<path d="M150.467 14.6883C149.676 14.6874 148.918 14.3728 148.359 13.8135C147.799 13.2542 147.485 12.4959 147.484 11.7049V11.6264C147.484 11.4391 147.558 11.2595 147.691 11.127C147.823 10.9945 148.003 10.92 148.19 10.9198H152.744C152.931 10.92 153.111 10.9945 153.243 11.127C153.376 11.2595 153.45 11.4391 153.451 11.6264V11.7049C153.45 12.4959 153.135 13.2542 152.576 13.8135C152.016 14.3728 151.258 14.6874 150.467 14.6883Z" fill="#CCCCCC"/>
<path d="M152.864 9.50654H148.07C148.004 9.50655 147.938 9.48945 147.879 9.45686C147.821 9.42428 147.772 9.37729 147.736 9.32037C147.701 9.26344 147.681 9.19847 147.678 9.13162C147.675 9.06477 147.689 8.99826 147.719 8.93841L148.661 7.05414C148.694 6.98878 148.744 6.9338 148.806 6.89545C148.868 6.8571 148.94 6.8369 149.013 6.83716H151.922C151.995 6.8369 152.066 6.8571 152.128 6.89545C152.19 6.9338 152.241 6.98878 152.273 7.05414L153.215 8.93841C153.245 8.99826 153.259 9.06477 153.256 9.13162C153.253 9.19847 153.233 9.26344 153.198 9.32037C153.163 9.37729 153.114 9.42428 153.055 9.45686C152.997 9.48945 152.931 9.50655 152.864 9.50654H152.864Z" fill="#F78065"/>
<path d="M167.033 15.0808H161.851V17.9072H167.033V15.0808Z" fill="#CCCCCC"/>
<path d="M164.207 15.709H162.165V17.9073H164.207V15.709Z" fill="white"/>
<path d="M166.719 15.709H164.678V17.9073H166.719V15.709Z" fill="white"/>
<path d="M164.442 20.9692C163.651 20.9683 162.893 20.6537 162.334 20.0944C161.774 19.5351 161.46 18.7768 161.459 17.9858V17.9073C161.459 17.7199 161.533 17.5403 161.666 17.4079C161.798 17.2754 161.978 17.2009 162.165 17.2007H166.719C166.906 17.2009 167.086 17.2754 167.218 17.4079C167.351 17.5403 167.425 17.7199 167.426 17.9073V17.9858C167.425 18.7768 167.11 19.5351 166.551 20.0944C165.991 20.6537 165.233 20.9683 164.442 20.9692Z" fill="#CCCCCC"/>
<path d="M162.987 13.2751C162.944 13.275 162.901 13.2871 162.864 13.3101C162.826 13.3331 162.796 13.3661 162.777 13.4053L161.835 15.2896C161.817 15.3255 161.808 15.3654 161.81 15.4055C161.812 15.4456 161.824 15.4846 161.845 15.5188C161.866 15.5529 161.896 15.5811 161.931 15.6007C161.966 15.6202 162.005 15.6305 162.045 15.6305H166.839C166.879 15.6305 166.919 15.6202 166.954 15.6007C166.989 15.5811 167.018 15.5529 167.039 15.5188C167.06 15.4846 167.072 15.4456 167.074 15.4055C167.076 15.3654 167.068 15.3255 167.05 15.2896L166.107 13.4053C166.088 13.3661 166.058 13.3331 166.021 13.3101C165.983 13.2871 165.941 13.275 165.897 13.2751H162.987Z" fill="#F78065"/>
<path d="M172.529 29.2129H167.347V32.0393H172.529V29.2129Z" fill="#CCCCCC"/>
<path d="M169.702 29.8409H167.661V32.0393H169.702V29.8409Z" fill="white"/>
<path d="M172.215 29.8409H170.173V32.0393H172.215V29.8409Z" fill="white"/>
<path d="M169.938 35.1012C169.147 35.1003 168.389 34.7857 167.829 34.2264C167.27 33.6671 166.955 32.9087 166.955 32.1178V32.0392C166.955 31.8519 167.029 31.6723 167.162 31.5398C167.294 31.4074 167.474 31.3329 167.661 31.3326H172.215C172.402 31.3329 172.582 31.4074 172.714 31.5398C172.847 31.6723 172.921 31.8519 172.921 32.0392V32.1178C172.92 32.9087 172.606 33.6671 172.047 34.2264C171.487 34.7857 170.729 35.1003 169.938 35.1012Z" fill="#CCCCCC"/>
<path d="M172.335 29.9195H167.541C167.474 29.9195 167.408 29.9024 167.35 29.8698C167.292 29.8372 167.242 29.7903 167.207 29.7333C167.172 29.6764 167.152 29.6114 167.149 29.5446C167.146 29.4777 167.16 29.4112 167.19 29.3514L168.132 27.4671C168.165 27.4017 168.215 27.3468 168.277 27.3084C168.339 27.2701 168.41 27.2499 168.483 27.2501H171.393C171.466 27.2499 171.537 27.2701 171.599 27.3084C171.661 27.3468 171.711 27.4017 171.744 27.4671L172.686 29.3514C172.716 29.4112 172.73 29.4777 172.727 29.5446C172.724 29.6114 172.704 29.6764 172.669 29.7333C172.634 29.7903 172.584 29.8372 172.526 29.8698C172.467 29.9024 172.402 29.9195 172.335 29.9195H172.335Z" fill="#F78065"/>
<path d="M166.719 42.4027H161.537V45.2291H166.719V42.4027Z" fill="#CCCCCC"/>
<path d="M163.893 43.0309H161.851V45.2292H163.893V43.0309Z" fill="white"/>
<path d="M166.405 43.0309H164.364V45.2292H166.405V43.0309Z" fill="white"/>
<path d="M164.128 48.2911C163.337 48.2902 162.579 47.9756 162.02 47.4163C161.46 46.857 161.146 46.0987 161.145 45.3077V45.2292C161.145 45.0418 161.219 44.8622 161.352 44.7298C161.484 44.5973 161.664 44.5228 161.851 44.5226H166.405C166.592 44.5228 166.772 44.5973 166.904 44.7298C167.037 44.8622 167.111 45.0418 167.112 45.2292V45.3077C167.111 46.0987 166.796 46.857 166.237 47.4163C165.677 47.9756 164.919 48.2902 164.128 48.2911Z" fill="#CCCCCC"/>
<path d="M166.525 43.1093H161.731C161.664 43.1093 161.599 43.0922 161.54 43.0596C161.482 43.0271 161.433 42.9801 161.397 42.9231C161.362 42.8662 161.342 42.8012 161.339 42.7344C161.336 42.6675 161.35 42.601 161.38 42.5412L162.322 40.6569C162.355 40.5916 162.405 40.5366 162.467 40.4982C162.529 40.4599 162.6 40.4397 162.673 40.4399H165.583C165.656 40.4397 165.727 40.4599 165.789 40.4982C165.851 40.5366 165.901 40.5916 165.934 40.6569L166.876 42.5412C166.906 42.601 166.92 42.6675 166.917 42.7344C166.914 42.8012 166.894 42.8662 166.859 42.9231C166.824 42.9801 166.774 43.0271 166.716 43.0596C166.658 43.0922 166.592 43.1093 166.525 43.1093H166.525Z" fill="#F78065"/>
<path d="M134.058 17.9072H139.24V15.0808H134.058V17.9072Z" fill="#CCCCCC"/>
<path d="M136.885 17.9072H138.926V15.7089H136.885V17.9072Z" fill="white"/>
<path d="M134.372 17.9072H136.414V15.7089H134.372V17.9072Z" fill="white"/>
<path d="M136.649 20.9692C135.858 20.9683 135.1 20.6537 134.541 20.0944C133.981 19.5351 133.667 18.7768 133.666 17.9858V17.9073C133.666 17.7199 133.74 17.5403 133.873 17.4079C134.005 17.2754 134.185 17.2009 134.372 17.2007H138.926C139.113 17.2009 139.293 17.2754 139.425 17.4079C139.558 17.5403 139.632 17.7199 139.633 17.9073V17.9858C139.632 18.7768 139.317 19.5351 138.758 20.0944C138.198 20.6537 137.44 20.9683 136.649 20.9692Z" fill="#CCCCCC"/>
<path d="M139.046 15.7874H134.252C134.185 15.7874 134.12 15.7703 134.061 15.7377C134.003 15.7052 133.954 15.6582 133.918 15.6012C133.883 15.5443 133.863 15.4794 133.86 15.4125C133.857 15.3457 133.871 15.2791 133.901 15.2193L134.843 13.335C134.876 13.2697 134.926 13.2147 134.988 13.1763C135.05 13.138 135.122 13.1178 135.195 13.118H138.104C138.177 13.1178 138.248 13.138 138.31 13.1763C138.372 13.2147 138.423 13.2697 138.455 13.335L139.397 15.2193C139.427 15.2791 139.441 15.3457 139.438 15.4125C139.435 15.4794 139.415 15.5443 139.38 15.6012C139.345 15.6582 139.296 15.7052 139.237 15.7377C139.179 15.7703 139.113 15.7874 139.046 15.7874H139.046Z" fill="#F78065"/>
<path d="M128.563 32.0393H133.744V29.2129H128.563V32.0393Z" fill="#CCCCCC"/>
<path d="M131.389 32.0393H133.43V29.841H131.389V32.0393Z" fill="white"/>
<path d="M128.877 32.0393H130.918V29.841H128.877V32.0393Z" fill="white"/>
<path d="M131.153 35.1012C130.362 35.1003 129.604 34.7857 129.045 34.2264C128.486 33.6671 128.171 32.9087 128.17 32.1178V32.0392C128.17 31.8519 128.245 31.6723 128.377 31.5398C128.51 31.4074 128.689 31.3329 128.877 31.3326H133.43C133.618 31.3329 133.797 31.4074 133.93 31.5398C134.062 31.6723 134.137 31.8519 134.137 32.0392V32.1178C134.136 32.9087 133.821 33.6671 133.262 34.2264C132.703 34.7857 131.944 35.1003 131.153 35.1012Z" fill="#CCCCCC"/>
<path d="M133.55 29.9195H128.757C128.69 29.9195 128.624 29.9024 128.565 29.8698C128.507 29.8372 128.458 29.7903 128.423 29.7333C128.387 29.6764 128.367 29.6114 128.364 29.5446C128.361 29.4777 128.376 29.4112 128.405 29.3514L129.348 27.4671C129.38 27.4017 129.43 27.3468 129.492 27.3084C129.554 27.2701 129.626 27.2499 129.699 27.2501H132.608C132.681 27.2499 132.753 27.2701 132.815 27.3084C132.877 27.3468 132.927 27.4017 132.959 27.4671L133.901 29.3514C133.931 29.4112 133.945 29.4777 133.942 29.5446C133.939 29.6114 133.919 29.6764 133.884 29.7333C133.849 29.7903 133.8 29.8372 133.741 29.8698C133.683 29.9024 133.617 29.9195 133.55 29.9195H133.55Z" fill="#F78065"/>
<path d="M134.372 45.2291H139.554V42.4027H134.372V45.2291Z" fill="#CCCCCC"/>
<path d="M137.199 45.2291H139.24V43.0308H137.199V45.2291Z" fill="white"/>
<path d="M134.686 45.2291H136.728V43.0308H134.686V45.2291Z" fill="white"/>
<path d="M136.963 48.2911C136.172 48.2902 135.414 47.9756 134.855 47.4163C134.295 46.857 133.981 46.0987 133.98 45.3077V45.2292C133.98 45.0418 134.055 44.8622 134.187 44.7298C134.319 44.5973 134.499 44.5228 134.686 44.5226H139.24C139.427 44.5228 139.607 44.5973 139.739 44.7298C139.872 44.8622 139.946 45.0418 139.947 45.2292V45.3077C139.946 46.0987 139.631 46.857 139.072 47.4163C138.513 47.9756 137.754 48.2902 136.963 48.2911Z" fill="#CCCCCC"/>
<path d="M139.36 43.1093H134.566C134.5 43.1093 134.434 43.0922 134.375 43.0596C134.317 43.0271 134.268 42.9801 134.233 42.9231C134.197 42.8662 134.177 42.8012 134.174 42.7344C134.171 42.6675 134.185 42.601 134.215 42.5412L135.157 40.6569C135.19 40.5916 135.24 40.5366 135.302 40.4982C135.364 40.4599 135.436 40.4397 135.509 40.4399H138.418C138.491 40.4397 138.562 40.4599 138.624 40.4982C138.687 40.5366 138.737 40.5916 138.769 40.6569L139.711 42.5412C139.741 42.601 139.755 42.6675 139.752 42.7344C139.749 42.8012 139.729 42.8662 139.694 42.9231C139.659 42.9801 139.61 43.0271 139.551 43.0596C139.493 43.0922 139.427 43.1093 139.36 43.1093H139.36Z" fill="#F78065"/>
<path d="M153.058 48.3696H147.876V51.196H153.058V48.3696Z" fill="#CCCCCC"/>
<path d="M150.232 48.9977H148.19V51.196H150.232V48.9977Z" fill="white"/>
<path d="M152.744 48.9977H150.703V51.196H152.744V48.9977Z" fill="white"/>
<path d="M148.19 50.6465C148.045 50.6467 147.905 50.7046 147.802 50.8076C147.699 50.9107 147.641 51.0504 147.641 51.1961V51.2746C147.64 51.646 147.713 52.0138 147.855 52.3571C147.997 52.7004 148.205 53.0123 148.468 53.2751C148.73 53.5378 149.042 53.7463 149.385 53.8885C149.728 54.0307 150.096 54.1039 150.467 54.1039C150.839 54.1039 151.206 54.0307 151.549 53.8885C151.893 53.7463 152.204 53.5378 152.467 53.2751C152.729 53.0123 152.937 52.7004 153.079 52.3571C153.221 52.0138 153.294 51.646 153.294 51.2746V51.1961C153.293 51.0504 153.235 50.9107 153.132 50.8076C153.029 50.7046 152.89 50.6467 152.744 50.6465H148.19Z" fill="#CCCCCC"/>
<path d="M149.013 46.5638C148.969 46.5637 148.926 46.5758 148.889 46.5988C148.851 46.6218 148.821 46.6548 148.802 46.694L147.86 48.5783C147.842 48.6142 147.833 48.6541 147.835 48.6942C147.837 48.7343 147.849 48.7733 147.87 48.8075C147.891 48.8416 147.921 48.8698 147.956 48.8894C147.991 48.9089 148.03 48.9192 148.07 48.9192H152.864C152.904 48.9192 152.944 48.9089 152.979 48.8894C153.014 48.8698 153.043 48.8416 153.064 48.8075C153.085 48.7733 153.097 48.7343 153.099 48.6942C153.101 48.6541 153.093 48.6142 153.075 48.5783L152.132 46.694C152.113 46.6548 152.083 46.6218 152.046 46.5988C152.009 46.5758 151.966 46.5637 151.922 46.5638H149.013Z" fill="#F78065"/>
<path d="M81.338 87.5558C81.385 87.5558 81.43 87.5372 81.4633 87.504C81.4965 87.4707 81.5151 87.4257 81.5151 87.3787C81.5151 87.3317 81.4965 87.2866 81.4633 87.2534C81.43 87.2202 81.385 87.2015 81.338 87.2015H79.6548V86.4928H81.338C81.385 86.4928 81.43 86.4741 81.4633 86.4409C81.4965 86.4077 81.5151 86.3626 81.5151 86.3156C81.5151 86.2686 81.4965 86.2235 81.4633 86.1903C81.43 86.1571 81.385 86.1384 81.338 86.1384H66.9866C66.9396 86.1384 66.8946 86.1571 66.8613 86.1903C66.8281 86.2235 66.8094 86.2686 66.8094 86.3156C66.8094 86.3626 66.8281 86.4077 66.8613 86.4409C66.8946 86.4741 66.9396 86.4928 66.9866 86.4928H68.6698V87.2015H66.9866C66.9396 87.2015 66.8946 87.2202 66.8613 87.2534C66.8281 87.2866 66.8094 87.3317 66.8094 87.3787C66.8094 87.4257 66.8281 87.4707 66.8613 87.504C66.8946 87.5372 66.9396 87.5558 66.9866 87.5558H68.6698V88.2646H66.9866C66.9396 88.2646 66.8946 88.2832 66.8613 88.3164C66.8281 88.3497 66.8094 88.3947 66.8094 88.4417C66.8094 88.4887 66.8281 88.5338 66.8613 88.567C66.8946 88.6002 66.9396 88.6189 66.9866 88.6189H68.6698V89.3276H67.1638C67.0698 89.3276 66.9797 89.3649 66.9132 89.4314C66.8468 89.4979 66.8094 89.588 66.8094 89.682C66.8094 89.776 66.8468 89.8661 66.9132 89.9325C66.9797 89.999 67.0698 90.0363 67.1638 90.0363H68.5975C68.587 90.0647 68.5815 90.0947 68.5812 90.1249V92.6054C68.5812 92.6759 68.6092 92.7435 68.6591 92.7933C68.7089 92.8432 68.7765 92.8712 68.847 92.8712C68.9175 92.8712 68.9851 92.8432 69.0349 92.7933C69.0847 92.7435 69.1128 92.6759 69.1128 92.6054V90.1249C69.1124 90.0947 69.1069 90.0647 69.0965 90.0363H79.2281C79.2176 90.0647 79.2121 90.0947 79.2118 90.1249V92.6054C79.2118 92.6759 79.2398 92.7435 79.2897 92.7933C79.3395 92.8432 79.4071 92.8712 79.4776 92.8712C79.5481 92.8712 79.6157 92.8432 79.6655 92.7933C79.7154 92.7435 79.7434 92.6759 79.7434 92.6054V90.1249C79.7431 90.0947 79.7376 90.0647 79.7271 90.0363H81.1608C81.2548 90.0363 81.3449 89.999 81.4114 89.9325C81.4778 89.8661 81.5151 89.776 81.5151 89.682C81.5151 89.588 81.4778 89.4979 81.4114 89.4314C81.3449 89.3649 81.2548 89.3276 81.1608 89.3276H79.6548V88.6189H81.338C81.385 88.6189 81.43 88.6002 81.4633 88.567C81.4965 88.5338 81.5151 88.4887 81.5151 88.4417C81.5151 88.3947 81.4965 88.3497 81.4633 88.3164C81.43 88.2832 81.385 88.2646 81.338 88.2646H79.6548V87.5558H81.338ZM69.0242 86.4928H79.3004V87.2015H69.0242V86.4928ZM79.3004 89.3276H69.0242V88.6189H79.3004V89.3276ZM79.3004 88.2646H69.0242V87.5558H79.3004V88.2646Z" fill="#3F3D56"/>
<path d="M136.704 108.761C136.751 108.761 136.796 108.743 136.829 108.71C136.863 108.676 136.881 108.631 136.881 108.584C136.881 108.537 136.863 108.492 136.829 108.459C136.796 108.426 136.751 108.407 136.704 108.407H135.021V107.698H136.704C136.751 107.698 136.796 107.68 136.829 107.646C136.863 107.613 136.881 107.568 136.881 107.521C136.881 107.474 136.863 107.429 136.829 107.396C136.796 107.363 136.751 107.344 136.704 107.344H122.353C122.306 107.344 122.261 107.363 122.228 107.396C122.194 107.429 122.176 107.474 122.176 107.521C122.176 107.568 122.194 107.613 122.228 107.646C122.261 107.68 122.306 107.698 122.353 107.698H124.036V108.407H122.353C122.306 108.407 122.261 108.426 122.228 108.459C122.194 108.492 122.176 108.537 122.176 108.584C122.176 108.631 122.194 108.676 122.228 108.71C122.261 108.743 122.306 108.761 122.353 108.761H124.036V109.47H122.353C122.306 109.47 122.261 109.489 122.228 109.522C122.194 109.555 122.176 109.6 122.176 109.647C122.176 109.694 122.194 109.739 122.228 109.773C122.261 109.806 122.306 109.824 122.353 109.824H124.036V110.533H122.53C122.436 110.533 122.346 110.571 122.279 110.637C122.213 110.703 122.176 110.794 122.176 110.888C122.176 110.982 122.213 111.072 122.279 111.138C122.346 111.205 122.436 111.242 122.53 111.242H123.964C123.953 111.27 123.948 111.3 123.947 111.33V113.811C123.947 113.846 123.954 113.881 123.967 113.913C123.981 113.945 124 113.975 124.025 113.999C124.05 114.024 124.079 114.044 124.111 114.057C124.144 114.071 124.178 114.078 124.213 114.078C124.248 114.078 124.283 114.071 124.315 114.057C124.347 114.044 124.377 114.024 124.401 113.999C124.426 113.975 124.446 113.945 124.459 113.913C124.472 113.881 124.479 113.846 124.479 113.811V111.33C124.479 111.3 124.473 111.27 124.463 111.242H134.594C134.584 111.27 134.578 111.3 134.578 111.33V113.811C134.578 113.881 134.606 113.949 134.656 113.999C134.706 114.049 134.773 114.077 134.844 114.077C134.914 114.077 134.982 114.049 135.032 113.999C135.082 113.949 135.11 113.881 135.11 113.811V111.33C135.109 111.3 135.104 111.27 135.093 111.242H136.527C136.621 111.242 136.711 111.205 136.778 111.138C136.844 111.072 136.881 110.982 136.881 110.888C136.881 110.794 136.844 110.703 136.778 110.637C136.711 110.571 136.621 110.533 136.527 110.533H135.021V109.824H136.704C136.751 109.824 136.796 109.806 136.829 109.773C136.863 109.739 136.881 109.694 136.881 109.647C136.881 109.6 136.863 109.555 136.829 109.522C136.796 109.489 136.751 109.47 136.704 109.47H135.021V108.761L136.704 108.761ZM124.39 107.698H134.667V108.407H124.39V107.698ZM134.667 110.533H124.39V109.824H134.667V110.533ZM134.667 109.47H124.39V108.761H134.667V109.47Z" fill="#3F3D56"/>
<path d="M181.364 85.5119C181.411 85.5119 181.456 85.4932 181.489 85.46C181.523 85.4268 181.541 85.3817 181.541 85.3347C181.541 85.2877 181.523 85.2427 181.489 85.2094C181.456 85.1762 181.411 85.1575 181.364 85.1575H179.681V84.4488H181.364C181.411 84.4488 181.456 84.4302 181.489 84.3969C181.523 84.3637 181.541 84.3186 181.541 84.2717C181.541 84.2247 181.523 84.1796 181.489 84.1464C181.456 84.1131 181.411 84.0945 181.364 84.0945H167.013C166.966 84.0945 166.921 84.1131 166.887 84.1464C166.854 84.1796 166.835 84.2247 166.835 84.2717C166.835 84.3186 166.854 84.3637 166.887 84.3969C166.921 84.4302 166.966 84.4488 167.013 84.4488H168.696V85.1575H167.013C166.966 85.1575 166.921 85.1762 166.887 85.2094C166.854 85.2427 166.835 85.2877 166.835 85.3347C166.835 85.3817 166.854 85.4268 166.887 85.46C166.921 85.4932 166.966 85.5119 167.013 85.5119H168.696V86.2206H167.013C166.966 86.2206 166.921 86.2393 166.887 86.2725C166.854 86.3057 166.835 86.3508 166.835 86.3978C166.835 86.4448 166.854 86.4898 166.887 86.5231C166.921 86.5563 166.966 86.575 167.013 86.575H168.696V87.2837H167.19C167.096 87.284 167.006 87.3214 166.94 87.3878C166.874 87.4543 166.836 87.5442 166.836 87.638C166.836 87.7318 166.874 87.8218 166.94 87.8882C167.006 87.9547 167.096 87.9921 167.19 87.9924H168.623C168.613 88.0208 168.608 88.0507 168.607 88.081V90.5615C168.607 90.6319 168.635 90.6995 168.685 90.7494C168.735 90.7992 168.803 90.8272 168.873 90.8272C168.943 90.8272 169.011 90.7992 169.061 90.7494C169.111 90.6995 169.139 90.6319 169.139 90.5615V88.081C169.138 88.0507 169.133 88.0208 169.122 87.9924H179.254C179.244 88.0208 179.238 88.0507 179.238 88.081V90.5615C179.238 90.6319 179.266 90.6995 179.316 90.7494C179.366 90.7992 179.433 90.8272 179.504 90.8272C179.574 90.8272 179.642 90.7992 179.692 90.7494C179.741 90.6995 179.769 90.6319 179.769 90.5615V88.081C179.769 88.0507 179.764 88.0208 179.753 87.9924H181.187C181.233 87.9925 181.28 87.9835 181.323 87.9657C181.366 87.948 181.405 87.9219 181.438 87.889C181.471 87.856 181.497 87.8169 181.515 87.7739C181.533 87.7308 181.542 87.6847 181.542 87.638C181.542 87.5914 181.533 87.5452 181.515 87.5022C181.497 87.4591 181.471 87.42 181.438 87.3871C181.405 87.3542 181.366 87.3281 181.323 87.3103C181.28 87.2926 181.233 87.2835 181.187 87.2837H179.681V86.575H181.364C181.411 86.575 181.456 86.5563 181.489 86.5231C181.522 86.4898 181.541 86.4448 181.541 86.3978C181.541 86.3508 181.522 86.3057 181.489 86.2725C181.456 86.2393 181.411 86.2206 181.364 86.2206H179.681V85.5119H181.364ZM169.05 84.4488H179.326V85.1575H169.05V84.4488ZM179.326 87.2837H169.05V86.575H179.326V87.2837ZM179.326 86.2206H169.05V85.5119H179.326V86.2206Z" fill="#3F3D56"/>
<path d="M114.103 130.061C114.103 125.517 110.417 114.735 105.87 114.735C101.323 114.735 97.6374 125.517 97.6374 130.061C97.6387 132.244 98.5067 134.337 100.051 135.88C101.594 137.422 103.688 138.289 105.87 138.289C108.053 138.289 110.146 137.422 111.69 135.88C113.234 134.337 114.102 132.244 114.103 130.061Z" fill="#F2F2F2"/>
<path d="M105.87 148.292C105.845 148.292 105.821 148.282 105.804 148.265C105.786 148.247 105.776 148.223 105.776 148.198V128.979C105.776 128.967 105.778 128.954 105.783 128.943C105.788 128.931 105.795 128.921 105.803 128.912C105.812 128.903 105.823 128.896 105.834 128.892C105.846 128.887 105.858 128.884 105.87 128.884C105.883 128.884 105.895 128.887 105.906 128.892C105.918 128.896 105.928 128.903 105.937 128.912C105.946 128.921 105.953 128.931 105.957 128.943C105.962 128.954 105.964 128.967 105.964 128.979V148.198C105.964 148.223 105.954 148.247 105.937 148.265C105.919 148.282 105.895 148.292 105.87 148.292Z" fill="#CCCCCC"/>
<path d="M105.87 132.57C105.857 132.57 105.844 132.567 105.831 132.561C105.819 132.556 105.808 132.548 105.799 132.537L101.064 127.077C101.048 127.058 101.04 127.033 101.042 127.009C101.044 126.984 101.055 126.961 101.074 126.944C101.093 126.928 101.117 126.92 101.142 126.922C101.167 126.923 101.19 126.935 101.207 126.953L105.941 132.414C105.953 132.428 105.961 132.444 105.964 132.462C105.966 132.48 105.963 132.498 105.956 132.515C105.948 132.531 105.936 132.545 105.921 132.555C105.906 132.565 105.888 132.57 105.87 132.57Z" fill="#CCCCCC"/>
<path d="M105.87 135.721C105.852 135.721 105.833 135.715 105.818 135.705C105.802 135.695 105.79 135.68 105.783 135.663C105.776 135.646 105.774 135.627 105.778 135.609C105.782 135.59 105.791 135.573 105.804 135.56L108.494 132.87C108.512 132.852 108.536 132.842 108.561 132.842C108.586 132.842 108.61 132.852 108.627 132.87C108.645 132.888 108.655 132.911 108.655 132.936C108.655 132.961 108.645 132.985 108.627 133.003L105.937 135.693C105.928 135.702 105.918 135.709 105.906 135.714C105.895 135.719 105.883 135.721 105.87 135.721Z" fill="#CCCCCC"/>
<path d="M35.5784 40.8956C35.5784 36.3518 31.8924 25.5695 27.3455 25.5695C22.7986 25.5695 19.1126 36.3518 19.1126 40.8956C19.1139 43.0782 19.9819 45.171 21.5258 46.7139C23.0696 48.2568 25.1629 49.1235 27.3455 49.1235C29.5281 49.1235 31.6215 48.2568 33.1653 46.7139C34.7091 45.171 35.5771 43.0782 35.5784 40.8956Z" fill="#3F3D56"/>
<path d="M27.3456 59.1265C27.3206 59.1265 27.2966 59.1166 27.279 59.099C27.2613 59.0813 27.2514 59.0573 27.2514 59.0324V39.8133C27.2515 39.7885 27.2615 39.7647 27.2792 39.7471C27.2968 39.7296 27.3207 39.7197 27.3456 39.7197C27.3704 39.7197 27.3943 39.7296 27.4119 39.7471C27.4296 39.7647 27.4396 39.7885 27.4397 39.8133V59.0324C27.4397 59.0447 27.4373 59.057 27.4325 59.0684C27.4278 59.0798 27.4209 59.0902 27.4121 59.0989C27.4034 59.1077 27.393 59.1146 27.3816 59.1194C27.3702 59.1241 27.3579 59.1265 27.3456 59.1265Z" fill="#CCCCCC"/>
<path d="M27.3456 43.4041C27.3321 43.4041 27.3187 43.4012 27.3064 43.3956C27.2942 43.39 27.2832 43.3818 27.2744 43.3716L22.5395 37.9111C22.5232 37.8923 22.515 37.8677 22.5168 37.8428C22.5187 37.818 22.5302 37.7949 22.5491 37.7785C22.5679 37.7622 22.5924 37.754 22.6173 37.7557C22.6422 37.7575 22.6653 37.769 22.6817 37.7878L27.4167 43.2482C27.4285 43.2619 27.4361 43.2786 27.4387 43.2965C27.4413 43.3143 27.4387 43.3326 27.4312 43.349C27.4237 43.3654 27.4116 43.3793 27.3965 43.3891C27.3813 43.3989 27.3636 43.4041 27.3456 43.4041V43.4041Z" fill="#CCCCCC"/>
<path d="M27.3455 46.5554C27.3269 46.5554 27.3087 46.5499 27.2932 46.5396C27.2778 46.5292 27.2657 46.5145 27.2586 46.4973C27.2515 46.4801 27.2496 46.4612 27.2532 46.4429C27.2568 46.4247 27.2658 46.4079 27.279 46.3947L29.9694 43.7042C29.9782 43.6955 29.9886 43.6885 30 43.6838C30.0114 43.6791 30.0236 43.6766 30.036 43.6766C30.0484 43.6766 30.0606 43.6791 30.072 43.6838C30.0835 43.6885 30.0938 43.6955 30.1026 43.7042C30.1113 43.7129 30.1182 43.7233 30.123 43.7347C30.1277 43.7462 30.1301 43.7584 30.1301 43.7708C30.1301 43.7831 30.1277 43.7954 30.123 43.8068C30.1182 43.8182 30.1113 43.8286 30.1026 43.8373L27.4121 46.5278C27.4034 46.5366 27.393 46.5436 27.3816 46.5483C27.3702 46.553 27.3579 46.5554 27.3455 46.5554Z" fill="#CCCCCC"/>
<path d="M18.4285 59.0017C18.4285 58.0902 18.7906 57.2159 19.4352 56.5714C20.0797 55.9268 20.9539 55.5647 21.8655 55.5647C22.7771 55.5647 23.6513 55.9268 24.2959 56.5714C24.9404 57.2159 25.3025 58.0902 25.3025 59.0017" fill="#F2F2F2"/>
<path d="M21.8655 59.0017C21.8409 59.0017 21.8173 58.9919 21.7999 58.9745C21.7824 58.9571 21.7726 58.9335 21.7726 58.9088V57.0974C21.7726 57.0728 21.7824 57.0491 21.7998 57.0317C21.8173 57.0143 21.8409 57.0045 21.8655 57.0045C21.8902 57.0045 21.9138 57.0143 21.9312 57.0317C21.9486 57.0491 21.9584 57.0728 21.9584 57.0974V58.9088C21.9584 58.9335 21.9486 58.9571 21.9312 58.9745C21.9138 58.9919 21.8902 59.0017 21.8655 59.0017Z" fill="#CCCCCC"/>
<path d="M21.8655 58.3793C21.8433 58.3794 21.8219 58.3714 21.805 58.3569L20.6904 57.4002C20.6811 57.3922 20.6735 57.3825 20.668 57.3717C20.6625 57.3608 20.6592 57.3489 20.6582 57.3368C20.6573 57.3246 20.6588 57.3124 20.6626 57.3008C20.6664 57.2892 20.6724 57.2785 20.6804 57.2692C20.6883 57.2599 20.698 57.2523 20.7089 57.2468C20.7198 57.2413 20.7316 57.238 20.7438 57.2371C20.756 57.2362 20.7682 57.2376 20.7798 57.2414C20.7914 57.2452 20.8021 57.2513 20.8113 57.2592L21.9261 58.2159C21.9405 58.2283 21.9507 58.2448 21.9555 58.2632C21.9602 58.2815 21.9593 58.3009 21.9527 58.3187C21.9461 58.3365 21.9342 58.3519 21.9186 58.3627C21.903 58.3735 21.8845 58.3793 21.8655 58.3793H21.8655Z" fill="#CCCCCC"/>
<path d="M29.0182 59.0017C29.0182 58.0902 29.3804 57.2159 30.0249 56.5714C30.6695 55.9268 31.5437 55.5647 32.4553 55.5647C33.3668 55.5647 34.2411 55.9268 34.8856 56.5714C35.5302 57.2159 35.8923 58.0902 35.8923 59.0017" fill="#F2F2F2"/>
<path d="M32.4553 59.0017C32.4307 59.0017 32.4071 58.9919 32.3896 58.9745C32.3722 58.9571 32.3624 58.9335 32.3624 58.9088V57.0974C32.3624 57.0728 32.3722 57.0491 32.3896 57.0317C32.4071 57.0143 32.4307 57.0045 32.4553 57.0045C32.48 57.0045 32.5036 57.0143 32.521 57.0317C32.5384 57.0491 32.5482 57.0728 32.5482 57.0974V58.9088C32.5482 58.9335 32.5384 58.9571 32.521 58.9745C32.5036 58.9919 32.48 59.0017 32.4553 59.0017Z" fill="#CCCCCC"/>
<path d="M32.4552 58.3793C32.433 58.3793 32.4116 58.3713 32.3948 58.3568L31.2801 57.4001C31.2615 57.384 31.2501 57.3613 31.2483 57.3368C31.2465 57.3123 31.2545 57.2881 31.2704 57.2694C31.2864 57.2508 31.3092 57.2393 31.3336 57.2373C31.3581 57.2354 31.3824 57.2433 31.4011 57.2591L32.5158 58.2159C32.5302 58.2282 32.5405 58.2447 32.5452 58.2631C32.55 58.2814 32.549 58.3008 32.5424 58.3186C32.5358 58.3364 32.5239 58.3518 32.5083 58.3626C32.4927 58.3734 32.4742 58.3793 32.4552 58.3792V58.3793Z" fill="#CCCCCC"/>
<path d="M208.544 129.806C208.544 125.262 204.858 114.48 200.312 114.48C195.765 114.48 192.079 125.262 192.079 129.806C192.08 131.988 192.948 134.081 194.492 135.624C196.036 137.167 198.129 138.034 200.312 138.034C202.494 138.034 204.588 137.167 206.131 135.624C207.675 134.081 208.543 131.988 208.544 129.806Z" fill="#F78065"/>
<path d="M200.312 148.037C200.287 148.037 200.263 148.027 200.245 148.009C200.227 147.991 200.217 147.967 200.217 147.942V128.723C200.217 128.711 200.22 128.699 200.224 128.687C200.229 128.676 200.236 128.665 200.245 128.657C200.254 128.648 200.264 128.641 200.275 128.636C200.287 128.631 200.299 128.629 200.312 128.629C200.324 128.629 200.336 128.631 200.348 128.636C200.359 128.641 200.37 128.648 200.378 128.657C200.387 128.665 200.394 128.676 200.399 128.687C200.403 128.699 200.406 128.711 200.406 128.723V147.943C200.406 147.967 200.396 147.991 200.378 148.009C200.361 148.027 200.337 148.037 200.312 148.037Z" fill="#CCCCCC"/>
<path d="M200.312 132.314C200.298 132.314 200.285 132.311 200.273 132.306C200.26 132.3 200.249 132.292 200.24 132.282L195.506 126.821C195.489 126.802 195.481 126.778 195.483 126.753C195.485 126.728 195.497 126.705 195.515 126.689C195.534 126.673 195.559 126.664 195.583 126.666C195.608 126.668 195.631 126.679 195.648 126.698L200.383 132.158C200.395 132.172 200.402 132.189 200.405 132.207C200.407 132.225 200.405 132.243 200.397 132.259C200.39 132.276 200.378 132.29 200.363 132.299C200.347 132.309 200.33 132.314 200.312 132.314V132.314Z" fill="#CCCCCC"/>
<path d="M200.312 135.466C200.293 135.466 200.275 135.46 200.259 135.45C200.244 135.439 200.232 135.425 200.225 135.407C200.218 135.39 200.216 135.371 200.219 135.353C200.223 135.335 200.232 135.318 200.245 135.305L202.936 132.614C202.944 132.606 202.955 132.599 202.966 132.594C202.977 132.589 202.99 132.587 203.002 132.587C203.014 132.587 203.027 132.589 203.038 132.594C203.05 132.599 203.06 132.606 203.069 132.614C203.077 132.623 203.084 132.633 203.089 132.645C203.094 132.656 203.096 132.669 203.096 132.681C203.096 132.693 203.094 132.706 203.089 132.717C203.084 132.728 203.077 132.739 203.069 132.747L200.378 135.438C200.369 135.447 200.359 135.454 200.348 135.458C200.336 135.463 200.324 135.466 200.312 135.466Z" fill="#CCCCCC"/>
<path d="M79.3099 131.246H77.7144C77.5954 131.246 77.4813 131.199 77.3972 131.115C77.3131 131.031 77.2658 130.916 77.2656 130.798V128.703C77.2658 128.584 77.3131 128.47 77.3972 128.386C77.4813 128.302 77.5954 128.255 77.7144 128.255H79.3099C79.4289 128.255 79.5429 128.302 79.6271 128.386C79.7112 128.47 79.7585 128.584 79.7587 128.703V130.798C79.7585 130.916 79.7112 131.031 79.6271 131.115C79.5429 131.199 79.4289 131.246 79.3099 131.246Z" fill="#3F3D56"/>
<path d="M92.7722 148.298H84.5951C84.3704 148.298 84.1549 148.209 83.996 148.05C83.8371 147.891 83.7477 147.676 83.7475 147.451V131.595C83.7477 131.371 83.8371 131.155 83.996 130.996C84.1549 130.837 84.3704 130.748 84.5951 130.748H92.7722C92.9969 130.748 93.2124 130.837 93.3713 130.996C93.5302 131.155 93.6196 131.371 93.6198 131.595V147.451C93.6196 147.676 93.5302 147.891 93.3713 148.05C93.2124 148.209 92.9969 148.298 92.7722 148.298Z" fill="#3F3D56"/>
<path d="M87.8859 148.298H73.7256C73.5008 148.298 73.2854 148.209 73.1265 148.05C72.9676 147.891 72.8782 147.676 72.8779 147.451V131.595C72.8782 131.371 72.9676 131.155 73.1265 130.996C73.2854 130.837 73.5008 130.748 73.7256 130.748H87.8859C88.1106 130.748 88.326 130.837 88.4849 130.996C88.6438 131.155 88.7332 131.371 88.7335 131.595V147.451C88.7332 147.676 88.6438 147.891 88.4849 148.05C88.326 148.209 88.1106 148.298 87.8859 148.298Z" fill="#F78065"/>
<path d="M77.8141 131.246H76.2186C76.0996 131.246 75.9855 131.199 75.9014 131.115C75.8173 131.031 75.77 130.916 75.7698 130.798V128.703C75.77 128.584 75.8173 128.47 75.9014 128.386C75.9855 128.302 76.0996 128.255 76.2186 128.255H77.8141C77.9331 128.255 78.0471 128.302 78.1313 128.386C78.2154 128.47 78.2627 128.584 78.2628 128.703V130.798C78.2627 130.916 78.2154 131.031 78.1313 131.115C78.0471 131.199 77.9331 131.246 77.8141 131.246Z" fill="#F78065"/>
<path d="M79.9083 138.576H78.0136C77.9475 138.576 77.8841 138.549 77.8374 138.503C77.7906 138.456 77.7644 138.392 77.7643 138.326V135.434C77.7644 135.368 77.7906 135.305 77.8374 135.258C77.8841 135.212 77.9475 135.185 78.0136 135.185H79.9083C79.9744 135.185 80.0377 135.212 80.0845 135.258C80.1312 135.305 80.1575 135.368 80.1576 135.434V138.326C80.1575 138.392 80.1312 138.456 80.0845 138.503C80.0377 138.549 79.9744 138.576 79.9083 138.576Z" fill="white"/>
<path d="M83.5979 138.576H81.7032C81.6371 138.576 81.5737 138.549 81.527 138.503C81.4802 138.456 81.4539 138.392 81.4539 138.326V135.434C81.4539 135.368 81.4802 135.305 81.527 135.258C81.5737 135.212 81.6371 135.185 81.7032 135.185H83.5979C83.6639 135.185 83.7273 135.212 83.774 135.258C83.8208 135.305 83.8471 135.368 83.8471 135.434V138.326C83.8471 138.392 83.8208 138.456 83.774 138.503C83.7273 138.549 83.6639 138.576 83.5979 138.576Z" fill="white"/>
<path d="M79.9083 143.861H78.0136C77.9475 143.861 77.8841 143.834 77.8374 143.788C77.7906 143.741 77.7644 143.678 77.7643 143.612V140.72C77.7644 140.654 77.7906 140.59 77.8374 140.543C77.8841 140.497 77.9475 140.47 78.0136 140.47H79.9083C79.9744 140.47 80.0377 140.497 80.0845 140.543C80.1312 140.59 80.1575 140.654 80.1576 140.72V143.612C80.1575 143.678 80.1312 143.741 80.0845 143.788C80.0377 143.834 79.9744 143.861 79.9083 143.861Z" fill="white"/>
<path d="M83.5979 143.861H81.7032C81.6371 143.861 81.5737 143.834 81.527 143.788C81.4802 143.741 81.4539 143.678 81.4539 143.612V140.72C81.4539 140.654 81.4802 140.59 81.527 140.543C81.5737 140.497 81.6371 140.47 81.7032 140.47H83.5979C83.6639 140.47 83.7273 140.497 83.774 140.543C83.8208 140.59 83.8471 140.654 83.8471 140.72V143.612C83.8471 143.678 83.8208 143.741 83.774 143.788C83.7273 143.834 83.6639 143.861 83.5979 143.861Z" fill="white"/>
<path d="M22.5527 81.5452H20.6709C20.5306 81.5451 20.396 81.4893 20.2968 81.3901C20.1976 81.2908 20.1418 81.1563 20.1416 81.016V76.6642C20.1418 76.5238 20.1976 76.3893 20.2968 76.2901C20.396 76.1909 20.5306 76.135 20.6709 76.1349H22.5527C22.6931 76.135 22.8276 76.1909 22.9268 76.2901C23.026 76.3893 23.0819 76.5238 23.082 76.6642V81.016C23.0819 81.1563 23.026 81.2908 22.9268 81.3901C22.8276 81.4893 22.6931 81.5451 22.5527 81.5452Z" fill="#3F3D56"/>
<path d="M29.9626 122.123H20.318C20.053 122.123 19.7989 122.017 19.6115 121.83C19.424 121.642 19.3186 121.388 19.3183 121.123V82.1921C19.3186 81.9271 19.424 81.6729 19.6115 81.4855C19.7989 81.2981 20.053 81.1927 20.318 81.1924H29.9626C30.2276 81.1927 30.4818 81.2981 30.6692 81.4855C30.8566 81.6729 30.962 81.9271 30.9623 82.1921V121.123C30.962 121.388 30.8566 121.642 30.6692 121.83C30.4818 122.017 30.2276 122.123 29.9626 122.123Z" fill="#3F3D56"/>
<path d="M24.1994 122.123H14.5548C14.2898 122.123 14.0357 122.017 13.8483 121.83C13.6608 121.642 13.5554 121.388 13.5551 121.123V82.1921C13.5554 81.9271 13.6608 81.6729 13.8483 81.4855C14.0357 81.2981 14.2898 81.1927 14.5548 81.1924H24.1994C24.4645 81.1927 24.7186 81.2981 24.906 81.4855C25.0934 81.6729 25.1988 81.9271 25.1991 82.1921V121.123C25.1988 121.388 25.0934 121.642 24.906 121.83C24.7186 122.017 24.4645 122.123 24.1994 122.123Z" fill="#F78065"/>
<path d="M20.7885 81.5452H18.9067C18.7663 81.5451 18.6318 81.4893 18.5326 81.3901C18.4334 81.2908 18.3775 81.1563 18.3774 81.016V76.6642C18.3775 76.5238 18.4334 76.3893 18.5326 76.2901C18.6318 76.1909 18.7663 76.135 18.9067 76.1349H20.7885C20.9288 76.135 21.0634 76.1909 21.1626 76.2901C21.2618 76.3893 21.3176 76.5238 21.3178 76.6642V81.016C21.3176 81.1563 21.2618 81.2908 21.1626 81.3901C21.0634 81.4893 20.9288 81.5451 20.7885 81.5452Z" fill="#F78065"/>
<path d="M18.3185 90.0136H16.0838C16.0059 90.0135 15.9311 89.9825 15.876 89.9274C15.8209 89.8723 15.7899 89.7975 15.7898 89.7196V86.3087C15.7899 86.2307 15.8209 86.156 15.876 86.1009C15.9311 86.0457 16.0059 86.0147 16.0838 86.0146H18.3185C18.3965 86.0147 18.4712 86.0457 18.5264 86.1009C18.5815 86.156 18.6125 86.2307 18.6126 86.3087V89.7196C18.6125 89.7975 18.5815 89.8723 18.5264 89.9274C18.4712 89.9825 18.3965 90.0135 18.3185 90.0136Z" fill="white"/>
<path d="M22.6704 90.0136H20.4356C20.3577 90.0135 20.283 89.9825 20.2278 89.9274C20.1727 89.8723 20.1417 89.7975 20.1416 89.7196V86.3087C20.1417 86.2307 20.1727 86.156 20.2278 86.1009C20.283 86.0457 20.3577 86.0147 20.4356 86.0146H22.6704C22.7483 86.0147 22.8231 86.0457 22.8782 86.1009C22.9333 86.156 22.9643 86.2307 22.9644 86.3087V89.7196C22.9643 89.7975 22.9333 89.8723 22.8782 89.9274C22.8231 89.9825 22.7483 90.0135 22.6704 90.0136Z" fill="white"/>
<path d="M18.3185 96.2472H16.0838C16.0059 96.2471 15.9311 96.2161 15.876 96.161C15.8209 96.1059 15.7899 96.0312 15.7898 95.9532V92.5423C15.7899 92.4644 15.8209 92.3896 15.876 92.3345C15.9311 92.2794 16.0059 92.2484 16.0838 92.2483H18.3185C18.3965 92.2484 18.4712 92.2794 18.5264 92.3345C18.5815 92.3896 18.6125 92.4644 18.6126 92.5423V95.9532C18.6125 96.0312 18.5815 96.1059 18.5264 96.161C18.4712 96.2161 18.3965 96.2471 18.3185 96.2472Z" fill="white"/>
<path d="M22.6704 96.2472H20.4356C20.3577 96.2471 20.283 96.2161 20.2278 96.161C20.1727 96.1059 20.1417 96.0312 20.1416 95.9532V92.5423C20.1417 92.4644 20.1727 92.3896 20.2278 92.3345C20.283 92.2794 20.3577 92.2484 20.4356 92.2483H22.6704C22.7483 92.2484 22.8231 92.2794 22.8782 92.3345C22.9333 92.3896 22.9643 92.4644 22.9644 92.5423V95.9532C22.9643 96.0312 22.9333 96.1059 22.8782 96.161C22.8231 96.2161 22.7483 96.2471 22.6704 96.2472Z" fill="white"/>
<path d="M18.3185 102.481H16.0838C16.0059 102.481 15.9311 102.45 15.876 102.395C15.8209 102.34 15.7899 102.265 15.7898 102.187V98.776C15.7899 98.698 15.8209 98.6233 15.876 98.5681C15.9311 98.513 16.0059 98.482 16.0838 98.4819H18.3185C18.3965 98.482 18.4712 98.513 18.5264 98.5681C18.5815 98.6233 18.6125 98.698 18.6126 98.776V102.187C18.6125 102.265 18.5815 102.34 18.5264 102.395C18.4712 102.45 18.3965 102.481 18.3185 102.481Z" fill="white"/>
<path d="M22.6704 102.481H20.4356C20.3577 102.481 20.283 102.45 20.2278 102.395C20.1727 102.34 20.1417 102.265 20.1416 102.187V98.776C20.1417 98.698 20.1727 98.6233 20.2278 98.5681C20.283 98.513 20.3577 98.482 20.4356 98.4819H22.6704C22.7483 98.482 22.8231 98.513 22.8782 98.5681C22.9333 98.6233 22.9643 98.698 22.9644 98.776V102.187C22.9643 102.265 22.9333 102.34 22.8782 102.395C22.8231 102.45 22.7483 102.481 22.6704 102.481Z" fill="white"/>
<path d="M18.3185 108.715H16.0838C16.0059 108.715 15.9311 108.684 15.876 108.628C15.8209 108.573 15.7899 108.499 15.7898 108.421V105.01C15.7899 104.932 15.8209 104.857 15.876 104.802C15.9311 104.747 16.0059 104.716 16.0838 104.716H18.3185C18.3965 104.716 18.4712 104.747 18.5264 104.802C18.5815 104.857 18.6125 104.932 18.6126 105.01V108.421C18.6125 108.499 18.5815 108.573 18.5264 108.628C18.4712 108.684 18.3965 108.715 18.3185 108.715Z" fill="white"/>
<path d="M22.6704 108.715H20.4356C20.3577 108.715 20.283 108.684 20.2278 108.628C20.1727 108.573 20.1417 108.499 20.1416 108.421V105.01C20.1417 104.932 20.1727 104.857 20.2278 104.802C20.283 104.747 20.3577 104.716 20.4356 104.716H22.6704C22.7483 104.716 22.8231 104.747 22.8782 104.802C22.9333 104.857 22.9643 104.932 22.9644 105.01V108.421C22.9643 108.499 22.9333 108.573 22.8782 108.628C22.8231 108.684 22.7483 108.715 22.6704 108.715Z" fill="white"/>
<path d="M18.3185 114.948H16.0838C16.0059 114.948 15.9311 114.917 15.876 114.862C15.8209 114.807 15.7899 114.732 15.7898 114.654V111.243C15.7899 111.165 15.8209 111.091 15.876 111.036C15.9311 110.98 16.0059 110.949 16.0838 110.949H18.3185C18.3965 110.949 18.4712 110.98 18.5264 111.036C18.5815 111.091 18.6125 111.165 18.6126 111.243V114.654C18.6125 114.732 18.5815 114.807 18.5264 114.862C18.4712 114.917 18.3965 114.948 18.3185 114.948Z" fill="white"/>
<path d="M22.6704 114.948H20.4356C20.3577 114.948 20.283 114.917 20.2278 114.862C20.1727 114.807 20.1417 114.732 20.1416 114.654V111.243C20.1417 111.165 20.1727 111.091 20.2278 111.036C20.283 110.98 20.3577 110.949 20.4356 110.949H22.6704C22.7483 110.949 22.8231 110.98 22.8782 111.036C22.9333 111.091 22.9643 111.165 22.9644 111.243V114.654C22.9643 114.732 22.9333 114.807 22.8782 114.862C22.8231 114.917 22.7483 114.948 22.6704 114.948Z" fill="white"/>
<path d="M172.23 131.3H170.635C170.516 131.3 170.402 131.252 170.318 131.168C170.233 131.084 170.186 130.97 170.186 130.851V128.757C170.186 128.638 170.233 128.524 170.318 128.44C170.402 128.356 170.516 128.308 170.635 128.308H172.23C172.349 128.308 172.463 128.356 172.547 128.44C172.632 128.524 172.679 128.638 172.679 128.757V130.851C172.679 130.97 172.632 131.084 172.547 131.168C172.463 131.252 172.349 131.3 172.23 131.3Z" fill="#3F3D56"/>
<path d="M185.693 148.352H177.516C177.291 148.352 177.075 148.262 176.916 148.103C176.758 147.945 176.668 147.729 176.668 147.504V131.649C176.668 131.424 176.758 131.209 176.916 131.05C177.075 130.891 177.291 130.801 177.516 130.801H185.693C185.917 130.801 186.133 130.891 186.292 131.05C186.451 131.209 186.54 131.424 186.54 131.649V147.504C186.54 147.729 186.451 147.945 186.292 148.103C186.133 148.262 185.917 148.352 185.693 148.352Z" fill="#3F3D56"/>
<path d="M180.806 148.352H166.646C166.421 148.352 166.206 148.262 166.047 148.103C165.888 147.945 165.799 147.729 165.798 147.504V131.649C165.799 131.424 165.888 131.209 166.047 131.05C166.206 130.891 166.421 130.801 166.646 130.801H180.806C181.031 130.801 181.246 130.891 181.405 131.05C181.564 131.209 181.654 131.424 181.654 131.649V147.504C181.654 147.729 181.564 147.945 181.405 148.103C181.246 148.262 181.031 148.352 180.806 148.352Z" fill="#F78065"/>
<path d="M170.735 131.3H169.139C169.02 131.3 168.906 131.252 168.822 131.168C168.738 131.084 168.69 130.97 168.69 130.851V128.757C168.69 128.638 168.738 128.524 168.822 128.44C168.906 128.356 169.02 128.308 169.139 128.308H170.735C170.854 128.308 170.968 128.356 171.052 128.44C171.136 128.524 171.183 128.638 171.183 128.757V130.851C171.183 130.97 171.136 131.084 171.052 131.168C170.968 131.252 170.854 131.3 170.735 131.3Z" fill="#F78065"/>
<path d="M172.829 138.629H170.934C170.868 138.629 170.804 138.603 170.758 138.556C170.711 138.509 170.685 138.446 170.685 138.38V135.488C170.685 135.422 170.711 135.359 170.758 135.312C170.804 135.265 170.868 135.239 170.934 135.239H172.829C172.895 135.239 172.958 135.265 173.005 135.312C173.052 135.359 173.078 135.422 173.078 135.488V138.38C173.078 138.446 173.052 138.509 173.005 138.556C172.958 138.603 172.895 138.629 172.829 138.629Z" fill="white"/>
<path d="M176.518 138.629H174.624C174.558 138.629 174.494 138.603 174.447 138.556C174.401 138.509 174.374 138.446 174.374 138.38V135.488C174.374 135.422 174.401 135.359 174.447 135.312C174.494 135.265 174.558 135.239 174.624 135.239H176.518C176.584 135.239 176.648 135.265 176.695 135.312C176.741 135.359 176.768 135.422 176.768 135.488V138.38C176.768 138.446 176.741 138.509 176.695 138.556C176.648 138.603 176.584 138.629 176.518 138.629Z" fill="white"/>
<path d="M172.829 143.914H170.934C170.868 143.914 170.804 143.888 170.758 143.841C170.711 143.795 170.685 143.731 170.685 143.665V140.773C170.685 140.707 170.711 140.644 170.758 140.597C170.804 140.55 170.868 140.524 170.934 140.524H172.829C172.895 140.524 172.958 140.55 173.005 140.597C173.052 140.644 173.078 140.707 173.078 140.773V143.665C173.078 143.731 173.052 143.795 173.005 143.841C172.958 143.888 172.895 143.914 172.829 143.914Z" fill="white"/>
<path d="M176.518 143.914H174.624C174.558 143.914 174.494 143.888 174.447 143.841C174.401 143.795 174.374 143.731 174.374 143.665V140.773C174.374 140.707 174.401 140.644 174.447 140.597C174.494 140.55 174.558 140.524 174.624 140.524H176.518C176.584 140.524 176.648 140.55 176.695 140.597C176.741 140.644 176.768 140.707 176.768 140.773V143.665C176.768 143.731 176.741 143.795 176.695 143.841C176.648 143.888 176.584 143.914 176.518 143.914Z" fill="white"/>
</g>
<defs>
<clipPath id="clip0">
<rect width="222.82" height="180" fill="white"/>
</clipPath>
</defs>
</svg>
